<svg width="30" height="30" viewBox="0 0 30 30" fill="none" xmlns="http://www.w3.org/2000/svg">
<path fill-rule="evenodd" clip-rule="evenodd" d="M10.4283 7.09269C10.4283 5.82755 9.47296 4.80078 8.29563 4.80078C7.11347 4.80078 6.16016 5.82755 6.16016 7.09269C6.16016 8.35857 7.11347 9.38533 8.29563 9.38533C9.47296 9.38533 10.4283 8.35857 10.4283 7.09269ZM10.1368 23.8408H6.45242V11.1228H10.1368V23.8408ZM15.8918 11.0384H12.3639V23.7564H16.04V17.4662C16.04 15.8065 16.3322 14.1994 18.2478 14.1994C20.1365 14.1994 20.16 16.0967 20.16 17.5714V23.7564H23.8402V16.7815C23.8402 13.3562 23.1515 10.723 19.4245 10.723C17.6343 10.723 16.4336 11.7772 15.9428 12.7773H15.8918V11.0384Z" fill="#D1D2D4"/>
</svg>
