<svg width="30" height="30" viewBox="0 0 30 30" fill="none" xmlns="http://www.w3.org/2000/svg">
<path fill-rule="evenodd" clip-rule="evenodd" d="M22.0409 12.7125C22.0409 12.5637 22.0378 12.4157 22.0305 12.2686C22.7387 11.784 23.3544 11.1793 23.8402 10.4909C23.1902 10.7642 22.4907 10.9483 21.7571 11.0314C22.5059 10.6064 23.0809 9.93396 23.352 9.13221C22.651 9.52546 21.875 9.8115 21.0488 9.96556C20.387 9.29824 19.4442 8.88086 18.4011 8.88086C16.3978 8.88086 14.7732 10.4184 14.7732 12.3139C14.7732 12.5833 14.8051 12.8454 14.8674 13.0967C11.8527 12.9532 9.17942 11.587 7.39068 9.50958C7.07879 10.0169 6.89941 10.6064 6.89941 11.2353C6.89941 12.4264 7.5398 13.4779 8.51353 14.093C7.91863 14.0757 7.35959 13.9209 6.87079 13.6635C6.86995 13.6778 6.86995 13.6923 6.86995 13.7074C6.86995 15.3702 8.12038 16.7584 9.78004 17.0732C9.47537 17.1517 9.15475 17.194 8.82379 17.194C8.59011 17.194 8.36291 17.1721 8.14192 17.132C8.60363 18.4961 9.94267 19.4887 11.5306 19.5167C10.2888 20.4375 8.72497 20.9862 7.0255 20.9862C6.73268 20.9862 6.44408 20.9704 6.16016 20.9388C7.76555 21.9125 9.67152 22.4809 11.7204 22.4809C18.3924 22.4809 22.0409 17.2491 22.0409 12.7125Z" fill="#D1D2D4"/>
</svg>
