<?xml version="1.0" standalone="no"?>
<!DOCTYPE svg PUBLIC "-//W3C//DTD SVG 1.1//EN" "http://www.w3.org/Graphics/SVG/1.1/DTD/svg11.dtd" >
<svg xmlns="http://www.w3.org/2000/svg" xmlns:xlink="http://www.w3.org/1999/xlink" version="1.1">
<metadata></metadata>
<defs>
<font id="daxblack" horiz-adv-x="1228" >
<font-face units-per-em="2048" ascent="1638" descent="-410" />
<missing-glyph horiz-adv-x="532" />
<glyph horiz-adv-x="0" />
<glyph unicode="&#xd;" horiz-adv-x="532" />
<glyph unicode=" "  horiz-adv-x="532" />
<glyph unicode="&#x09;" horiz-adv-x="532" />
<glyph unicode="&#xa0;" horiz-adv-x="532" />
<glyph unicode="!" horiz-adv-x="763" d="M123 1409h549l-99 -860h-352zM152 221q0 102 71.5 175t173.5 73t174 -73t72 -175q0 -100 -71.5 -173t-174.5 -73q-100 0 -172.5 73t-72.5 173z" />
<glyph unicode="&#x22;" horiz-adv-x="1024" d="M92 1346q66 88 187 88q122 0 188 -88l-72 -633h-231zM555 1346q68 88 190 88q119 0 187 -88l-72 -633h-233z" />
<glyph unicode="#" d="M90 410v215h178l35 192h-145v217h178l65 375h246l-63 -375h164l63 375h248l-64 -373h144v-217h-178l-35 -194h143v-213h-178l-68 -412h-248l70 412h-164l-69 -412h-250l71 410h-143zM514 625h164l35 194h-162z" />
<glyph unicode="$" d="M143 70l101 315q98 -59 211 -59t112 90q0 76 -153 155q-258 133 -258 387q0 168 100 292t274 159l-24 262h239l-26 -256q166 -14 272 -76l-84 -260q-102 51 -190 51q-49 0 -85 -24.5t-36 -63.5q0 -80 158 -172q139 -80 202 -159q86 -111 86 -267q0 -160 -99 -279.5 t-271 -160.5l28 -285h-245l26 273q-227 8 -338 78z" />
<glyph unicode="%" horiz-adv-x="1888" d="M92 936q0 201 68 328q88 166 280 166q193 0 281 -166q67 -127 67 -328q0 -199 -67 -324q-88 -164 -281 -163q-193 0 -280 163q-68 125 -68 324zM377 948q0 -285 63 -284q64 -1 64 284q0 289 -64 289q-63 0 -63 -289zM594 27l483 1407l217 -54l-483 -1405zM1100 467 q0 201 67 328q88 166 281 166t281 -166q67 -127 67 -328q0 -197 -67 -322q-88 -164 -281 -163q-193 0 -281 163q-68 125 -67 322zM1384 481q0 -287 64 -286q63 -1 63 286t-63 287t-64 -287z" />
<glyph unicode="&#x26;" horiz-adv-x="1388" d="M61 401q0 248 258 367v4q-174 104 -174 287q0 166 133.5 268.5t352.5 102.5q266 0 407 -91l-133 -264q-82 37 -170 37q-131 0 -131 -104q0 -98 148 -99q203 0 530 158l137 -264q-113 -53 -215 -74v-661q-170 -88 -524 -88q-618 0 -619 421zM549 436q0 -94 34.5 -134 t125.5 -40q29 0 45 8v385q-205 -45 -205 -219z" />
<glyph unicode="'" horiz-adv-x="561" d="M92 1346q66 88 189 88q122 0 188 -88l-72 -633h-233z" />
<glyph unicode="(" horiz-adv-x="888" d="M82 586q0 276 134 525t441 529l211 -112q-315 -442 -315 -942q0 -502 315 -944l-211 -113q-307 281 -444 532q-131 246 -131 525z" />
<glyph unicode=")" horiz-adv-x="888" d="M20 -358q315 442 316 944q0 500 -316 942l211 112q307 -281 445 -532q131 -246 131 -522q0 -279 -131 -525q-137 -252 -445 -532z" />
<glyph unicode="*" horiz-adv-x="1026" d="M82 1325q0 61 42 102t97 41q57 0 98 -41t41 -102q0 -59 -42 -100t-99 -41q-55 0 -96 41t-41 100zM193 983q0 61 40.5 102t98.5 41q57 0 97 -41t40 -102q0 -59 -41 -100t-96 -41q-57 0 -98 41t-41 100zM375 1538q0 61 41 102t98 41q55 0 96 -41t41 -102q0 -59 -41 -100 t-98 -41q-55 0 -96 41t-41 100zM403 1233q0 47 33 78.5t78 31.5q43 0 76 -31.5t33 -78.5q0 -49 -33 -80t-78 -31q-43 0 -76 32t-33 79zM553 983q0 61 42 102t99 41q55 0 96 -41t41 -102t-40.5 -101t-98.5 -40q-55 0 -97 41t-42 100zM666 1325q0 61 42 102t99 41q55 0 96 -42 t41 -101q0 -61 -42 -102t-99 -41q-55 0 -96 42t-41 101z" />
<glyph unicode="+" d="M178 530v287h293v287h287v-287h293v-287h-293v-286h-287v286h-293z" />
<glyph unicode="," horiz-adv-x="704" d="M-23 -346l207 676q86 137 256 137q168 0 191 -137l-385 -676h-269z" />
<glyph unicode="-" horiz-adv-x="753" d="M74 522v326h606v-326h-606z" />
<glyph unicode="." horiz-adv-x="638" d="M74 221q0 102 71.5 175t173.5 73t174 -72t72 -174t-71.5 -175t-174.5 -73q-100 0 -172.5 73t-72.5 173z" />
<glyph unicode="/" d="M0 -352l958 1990l271 -133l-959 -1988z" />
<glyph unicode="0" d="M76 705q0 289 110 481q141 244 428 244t428 -244q111 -192 111 -481t-111 -482q-141 -244 -428 -243q-287 0 -428 243q-111 193 -110 482zM510 711q0 -225 22 -322q23 -109 82 -108q59 0 84 108q21 97 21 322t-21 323q-25 109 -84 109t-82 -109q-23 -98 -22 -323z" />
<glyph unicode="1" d="M129 1202q195 23 338 90q119 57 151 117h338v-1409h-467v965q-121 -31 -303 -35z" />
<glyph unicode="2" d="M37 0l463 682q111 164 110 266q0 152 -166 152q-150 0 -256 -49l-102 286q180 92 446 93q309 0 451 -148q102 -109 102 -270q0 -176 -196 -406l-195 -227h391v-379h-1048z" />
<glyph unicode="3" d="M37 68l121 309q115 -59 272 -60q188 0 188 132q0 152 -288 151v236q272 29 272 170q0 102 -151 102q-135 0 -263 -53l-106 286q180 88 450 89q256 0 394 -103q131 -98 131 -268q0 -174 -185 -260v-4q242 -103 242 -349q0 -209 -166 -337.5t-440 -128.5q-291 0 -471 88z " />
<glyph unicode="4" d="M82 236v260l524 913h457v-934h96v-239h-96v-236h-436v236h-545zM360 475h267v303q0 107 10 213h-4q-14 -47 -96 -209z" />
<glyph unicode="5" d="M53 66l119 311q119 -59 274 -60q188 0 189 136q0 156 -287 155q-96 0 -219 -18l98 819h820v-377h-500l-17 -168q600 0 600 -418q0 -209 -165.5 -337.5t-438.5 -128.5q-295 0 -473 86z" />
<glyph unicode="6" d="M86 541q0 274 150 491q123 176 325 287q170 94 318 106l114 -301q-102 -14 -207 -69q-129 -70 -196 -172q20 4 76 4q195 0 321 -84q166 -110 166 -352q0 -221 -146.5 -346t-385.5 -125q-281 0 -422 184q-113 150 -113 377zM506 522q0 -250 119 -250q100 0 100 207 q0 188 -164 189l-43 -6q-12 -55 -12 -140z" />
<glyph unicode="7" d="M88 1032v377h1110l-168 -426q-252 -639 -311 -983h-555l479 1032h-555z" />
<glyph unicode="8" d="M76 371q0 121 69 209q57 70 185 147q-217 150 -217 330q0 168 139 270.5t360 102.5q223 0 363.5 -100.5t140.5 -268.5q0 -178 -217 -318q254 -163 254 -368q0 -182 -146.5 -288.5t-394.5 -106.5q-242 0 -389 102t-147 289zM469 383q0 -47 39 -88t98 -41t95 35t36 90 q0 57 -22 92q-27 47 -109 102q-70 -45 -98 -77q-39 -47 -39 -113zM500 1069q0 -57 39 -104q23 -27 88 -74q127 92 127 176q0 49 -37 82t-90 33q-57 0 -92 -32t-35 -81z" />
<glyph unicode="9" d="M76 956q0 219 153 347q147 123 389 122q281 0 416 -184q109 -146 109 -375q0 -274 -150 -491q-123 -176 -325 -289q-172 -94 -318 -106l-114 303q102 14 206 69q129 70 197 172q-31 -6 -76 -6q-195 0 -319 84q-168 113 -168 354zM498 944q0 -188 164 -188q6 0 43 6 q12 55 12 139q0 250 -119 250q-100 0 -100 -207z" />
<glyph unicode=":" horiz-adv-x="638" d="M74 221q0 102 71.5 175t173.5 73t174 -73t72 -175q0 -100 -71.5 -173t-174.5 -73q-100 0 -172.5 73t-72.5 173zM74 881q0 102 71.5 174.5t173.5 72.5t174 -71.5t72 -173.5t-71.5 -175t-174.5 -73q-100 0 -172.5 72.5t-72.5 173.5z" />
<glyph unicode=";" horiz-adv-x="704" d="M-23 -346l207 676q86 137 256 137q168 0 191 -137l-385 -676h-269zM139 881q0 102 72 174.5t174 72.5t174 -71.5t72 -173.5t-72 -175t-174 -73q-100 0 -173 72.5t-73 173.5z" />
<glyph unicode="&#x3c;" d="M178 545v256l873 354v-311l-519 -170l519 -172v-309z" />
<glyph unicode="=" d="M178 285v286h873v-286h-873zM178 776v287h873v-287h-873z" />
<glyph unicode="&#x3e;" d="M178 193v309l518 172l-518 170v311l873 -352v-258z" />
<glyph unicode="?" horiz-adv-x="1036" d="M61 1343q172 88 412 89q254 0 398.5 -101.5t144.5 -269.5q0 -137 -109 -236q-80 -74 -200 -114l-21 -162h-350l-37 289q231 45 231 168q0 115 -159 114q-90 0 -197 -47zM266 221q0 102 72 175t174 73t174 -73t72 -175q0 -100 -72 -173t-174 -73q-100 0 -173 73t-73 173z " />
<glyph unicode="@" horiz-adv-x="1773" d="M70 477q0 391 284.5 674t696.5 283q287 0 464 -160t177 -424q0 -256 -127 -467q-150 -246 -381 -246q-82 0 -125 39q-35 33 -58 109q-141 -145 -282 -146q-143 0 -221 107q-70 94 -70 235q0 205 119 375q135 193 344 193q127 0 221 -115l21 78h194l-104 -465 q-25 -109 -25 -156q0 -84 39 -84q119 0 203 197q72 170 71 340q0 209 -135 329.5t-346 120.5q-332 0 -561 -256q-219 -244 -219 -565q0 -264 184 -424q174 -154 449 -153q389 0 702 301l96 -119q-166 -158 -335 -234q-207 -92 -469 -92q-356 0 -578 193q-229 199 -229 532z M641 481q0 -86 47 -131q39 -39 92 -39q117 0 197 150q67 125 67 248q0 70 -34 116q-41 55 -111 56q-117 0 -194 -150q-63 -125 -64 -250z" />
<glyph unicode="A" horiz-adv-x="1312" d="M-20 0l438 1409h477l438 -1409h-489l-39 182h-361l-45 -182h-419zM508 449h237l-83 382q-18 88 -25 173h-4l-29 -170z" />
<glyph unicode="B" horiz-adv-x="1306" d="M109 66v1277q182 86 503 87q305 0 465 -117q143 -104 144 -283q0 -113 -78 -196q-61 -66 -150 -95v-4q102 -39 174 -121q82 -98 82 -219q0 -415 -623 -415h-3q-336 0 -514 86zM563 264q20 -8 55 -8q88 0 123 39t35 129q0 96 -35 139q-37 48 -123 48q-10 0 -20 -1l-35 -2 v-344zM563 836l35 -2q12 -1 23 0q76 0 109 35q38 41 38 135q0 163 -148 163h-2q-33 0 -55 -6v-325z" />
<glyph unicode="C" horiz-adv-x="1032" d="M70 705q0 299 137 495q158 229 450 230q213 0 336 -87l-94 -288q-53 30 -128 30h-5q-209 0 -209 -376q0 -147 47 -246q53 -117 158 -117q70 0 129 33l102 -309q-117 -90 -342 -90q-295 0 -450 227q-131 195 -131 498z" />
<glyph unicode="D" horiz-adv-x="1312" d="M109 66v1277q207 86 450 87q684 -1 684 -730q0 -317 -139 -499q-166 -221 -522 -221q-291 0 -473 86zM578 307q8 -2 22 -2q92 0 127 76q39 86 39 332q0 233 -36 318t-138 85q-8 0 -14 -2v-807z" />
<glyph unicode="E" horiz-adv-x="976" d="M109 0v1409h786v-317h-309v-228h260v-309h-260v-238h309v-317h-786z" />
<glyph unicode="F" horiz-adv-x="964" d="M109 0v1409h786v-317h-309v-228h260v-309h-260v-555h-477z" />
<glyph unicode="G" horiz-adv-x="1294" d="M70 709q0 311 170 505q188 215 534 216q252 0 420 -91l-139 -292q-82 45 -221 45q-287 0 -287 -385q0 -209 41 -303.5t133 -94.5q20 0 35 6v271h-99v278h537v-796q-152 -88 -438 -88q-686 0 -686 729z" />
<glyph unicode="H" horiz-adv-x="1355" d="M109 0v1409h477v-545h184v545h477v-1409h-477v555h-184v-555h-477z" />
<glyph unicode="I" horiz-adv-x="694" d="M109 0v1409h477v-1409h-477z" />
<glyph unicode="J" horiz-adv-x="694" d="M-63 -123q76 0 124 51.5t48 147.5v1333h477v-1276q0 -291 -178 -440q-168 -143 -471 -144v328z" />
<glyph unicode="K" horiz-adv-x="1357" d="M109 0v1409h477v-618h4l254 618h481l-315 -641l346 -768h-529l-237 668h-4v-668h-477z" />
<glyph unicode="L" horiz-adv-x="933" d="M109 0v1409h477v-1092h291v-317h-768z" />
<glyph unicode="M" horiz-adv-x="1669" d="M51 0l131 1409h449l155 -557q20 -74 35 -158h4q10 37 43 156l170 559h447l133 -1409h-451q-6 82 -30 567q-3 55 -3 117q0 31 1 64h-5q-10 -45 -47 -181l-178 -567h-207q-33 92 -178 567q-29 90 -47 178h-4q2 -44 2 -88.5t-2 -89.5l-29 -567h-389z" />
<glyph unicode="N" horiz-adv-x="1351" d="M109 0v1409h389l286 -455q37 -57 64 -123h4q-8 70 -8 127v451h399v-1409h-348l-336 555q-33 55 -57 123h-4q8 -72 8 -133v-545h-397z" />
<glyph unicode="O" horiz-adv-x="1323" d="M70 705q0 319 139 509q156 215 455 216q299 0 452 -216q137 -190 137 -509t-137 -510q-154 -215 -452 -215q-299 0 -455 215q-139 190 -139 510zM557 723q0 -186 16 -270q25 -125 91 -125q104 0 104 395t-104 395q-66 0 -91 -125q-16 -84 -16 -270z" />
<glyph unicode="P" horiz-adv-x="1271" d="M109 0v1343q203 86 503 87q315 0 473 -142q134 -123 134 -334q0 -219 -146 -344q-160 -135 -471 -135h-29v-475h-464zM573 743h31q92 0 127 45t35 168q0 115 -30.5 162t-119.5 47q-8 0 -23 -2t-20 -2v-418z" />
<glyph unicode="Q" horiz-adv-x="1323" d="M70 705q0 319 139 509q156 215 455 216q299 0 452 -216q137 -190 137 -509q0 -418 -225 -605l199 -233l-340 -301l-156 418q-45 -4 -67 -4q-299 0 -455 215q-139 190 -139 510zM557 723q0 -186 16 -270q25 -125 91 -125q104 0 104 395t-104 395q-66 0 -91 -125 q-16 -84 -16 -270z" />
<glyph unicode="R" horiz-adv-x="1310" d="M109 0v1343q205 86 495 87q322 0 483 -127q152 -119 152 -334q0 -94 -69.5 -192.5t-157.5 -139.5l2 -4l289 -633h-517l-204 586h-4v-586h-469zM578 713q8 -4 22 -4q170 0 172 233q0 119 -27 164q-33 55 -133 55q-14 0 -34 -4v-444z" />
<glyph unicode="S" horiz-adv-x="1028" d="M39 68l104 333q85 -67 204 -67h3q111 0 111 76q0 72 -146 145q-262 133 -262 401q0 201 137.5 337.5t360.5 136.5q225 0 371 -87l-97 -288q-98 57 -198 57q-109 0 -109 -78q0 -76 150 -151q182 -92 250 -207q51 -89 51 -230q0 -199 -145.5 -332.5t-374.5 -133.5 q-276 0 -410 88z" />
<glyph unicode="T" horiz-adv-x="1030" d="M66 1092v317h899v-317h-211v-1092h-478v1092h-210z" />
<glyph unicode="U" horiz-adv-x="1298" d="M109 428v981h477v-975q0 -98 82 -98q78 0 77 100v973h445v-979q0 -215 -160 -340q-147 -115 -381 -115q-231 0 -381 115q-160 125 -159 338z" />
<glyph unicode="V" horiz-adv-x="1243" d="M-20 1409h501l137 -645q14 -63 21 -160h4q4 45 23 158l141 647h457l-435 -1409h-413z" />
<glyph unicode="W" horiz-adv-x="1769" d="M12 1409h463l92 -629q12 -80 15 -157h4q2 39 22 157l129 629h330l125 -629q16 -80 20 -157h5q2 39 14 157l96 629h430l-303 -1409h-422l-125 500q-16 63 -22 139h-4q-6 -53 -21 -139l-119 -500h-424z" />
<glyph unicode="X" horiz-adv-x="1220" d="M-20 0l366 711l-336 698h504l104 -313h5l131 313h456l-348 -639l379 -770h-528l-119 334h-4l-123 -334h-487z" />
<glyph unicode="Y" horiz-adv-x="1150" d="M-29 1409h496l125 -428h2l135 428h451l-371 -850v-559h-475v559z" />
<glyph unicode="Z" horiz-adv-x="1044" d="M20 0l363 1092h-301v317h889l-338 -1092h340v-317h-953z" />
<glyph unicode="[" horiz-adv-x="796" d="M102 -440v2048h643v-254h-243v-1538h243v-256h-643z" />
<glyph unicode="\" d="M0 1505l270 133l959 -1990l-271 -131z" />
<glyph unicode="]" horiz-adv-x="796" d="M51 -184h244v1538h-244v254h643v-2048h-643v256z" />
<glyph unicode="^" horiz-adv-x="1327" d="M137 874l355 472q61 82 174 81q109 0 170 -81l354 -472l-189 -178l-335 369l-342 -369z" />
<glyph unicode="_" d="M-20 -229h1269v-273h-1269v273z" />
<glyph unicode="`" horiz-adv-x="614" d="M-4 1503q29 66 178 66q137 0 227 -51l136 -308h-248z" />
<glyph unicode="a" horiz-adv-x="1189" d="M49 348q0 193 187 289q145 74 430 98v33q0 80 -144 80q-152 0 -311 -68l-94 256q233 88 495 88q481 0 482 -448v-610q-168 -86 -498 -86q-547 0 -547 368zM473 369q0 -139 141 -140q40 1 52 7v299q-193 -8 -193 -166z" />
<glyph unicode="b" horiz-adv-x="1257" d="M96 68v1540h459v-518q89 30 180 30h6q201 0 328 -144t127 -380q0 -616 -631 -616q-324 0 -469 88zM555 254q16 -4 43 -4q145 0 145 311q0 162 -20 219q-29 80 -117 80q-29 0 -51 -6v-600z" />
<glyph unicode="c" horiz-adv-x="878" d="M61 559q0 270 150 426q133 139 332 139t297 -86l-88 -247q-40 34 -94 34h-3q-131 0 -131 -264q0 -262 131 -262q59 0 97 37l92 -270q-90 -86 -293 -86q-219 0 -350 145q-139 156 -140 434z" />
<glyph unicode="d" horiz-adv-x="1257" d="M61 555q0 254 137.5 408.5t352.5 154.5q109 0 151 -14v504h459v-1542q-186 -86 -497 -86q-279 0 -435 137q-168 147 -168 438zM514 569q0 -305 150 -305q13 0 38 4v594q-8 4 -36 4q-152 0 -152 -297z" />
<glyph unicode="e" horiz-adv-x="1189" d="M61 555q0 252 136 403q145 166 415 166q256 0 389 -157q127 -147 127 -410q0 -35 -2 -72l-628 -86q39 -112 193 -112h3q178 0 301 55l99 -276q-186 -86 -461 -86q-276 0 -430 172q-141 156 -142 403zM461 670q0 -29 4 -60l240 39q0 215 -113 215q-131 0 -131 -194z" />
<glyph unicode="f" horiz-adv-x="811" d="M51 803v301h113v70q0 213 131 329q125 113 342 113q63 0 133 -10v-291q-25 2 -43 2q-104 0 -104 -113v-100h147v-301h-147v-803h-459v803h-113z" />
<glyph unicode="g" horiz-adv-x="1245" d="M61 518q0 293 159 449.5t472 156.5q307 0 457 -86v-1032q0 -248 -158 -368q-139 -106 -385 -107q-307 0 -481 90l106 293q131 -66 291 -66q180 0 180 125v45q-57 -20 -165 -20q-205 0 -336 137q-139 145 -140 383zM514 549q0 -162 34 -228.5t111 -66.5q25 0 43 6v596 q-14 6 -43 6q-80 0 -112.5 -69.5t-32.5 -243.5z" />
<glyph unicode="h" horiz-adv-x="1269" d="M96 0v1608h459v-521q104 35 221 35q197 0 301 -102q96 -94 97 -258v-762h-459v752q0 96 -105 96q-39 0 -55 -6v-842h-459z" />
<glyph unicode="i" horiz-adv-x="651" d="M92 1425q0 84 68.5 142.5t165.5 58.5q96 0 164.5 -58.5t68.5 -142.5t-68.5 -142t-164.5 -58t-165 58t-69 142zM96 0v1104h459v-1104h-459z" />
<glyph unicode="j" horiz-adv-x="651" d="M-66 -164q94 27 125 76q37 59 37 205v987h459v-922q0 -301 -168 -475t-453 -174v303zM92 1425q0 84 68.5 142.5t165.5 58.5q98 0 165.5 -59.5t67.5 -141.5q0 -84 -67.5 -142t-163.5 -58q-98 0 -167 58t-69 142z" />
<glyph unicode="k" horiz-adv-x="1265" d="M98 0v1608h459v-967h2l227 463h451l-272 -473l321 -631h-510l-215 545h-4v-545h-459z" />
<glyph unicode="l" horiz-adv-x="651" d="M96 0v1608h459v-1608h-459z" />
<glyph unicode="m" horiz-adv-x="1888" d="M96 0v1038q205 88 510 88q236 0 361 -90q141 88 391 88q197 0 315.5 -99t118.5 -273v-752h-459v756q0 88 -104 88q-27 0 -55 -8v-836h-459v752q0 90 -101 90q-10 0 -59 -6v-836h-459z" />
<glyph unicode="n" horiz-adv-x="1269" d="M96 0v1040q207 84 520 84q557 0 558 -370v-754h-459v750q0 94 -99 94q-18 0 -61 -6v-838h-459z" />
<glyph unicode="o" horiz-adv-x="1208" d="M61 553q0 254 146.5 412.5t396.5 158.5t400 -161q143 -156 143 -410q0 -256 -143 -412q-149 -161 -397 -161h-3q-250 0 -399 161q-143 156 -144 412zM516 561q0 -274 88 -274t88 274q0 279 -88 279t-88 -279z" />
<glyph unicode="p" horiz-adv-x="1257" d="M96 -440v1478q193 86 498 86q279 0 434 -137q168 -147 168 -438q0 -254 -138 -408.5t-353 -154.5q-106 0 -150 14v-440h-459zM555 258q16 -4 37 -4q82 0 116.5 70.5t34.5 226.5q0 164 -33.5 234.5t-115.5 70.5q-29 0 -39 -2v-596z" />
<glyph unicode="q" horiz-adv-x="1257" d="M61 508q0 279 140 436q160 180 491 180q303 0 469 -86v-1478h-459v454q-79 -30 -172 -30h-6q-199 0 -327 143q-135 145 -136 381zM514 551q0 -295 137 -295q33 0 51 6v596q-16 4 -43 4q-145 0 -145 -311z" />
<glyph unicode="r" horiz-adv-x="811" d="M96 0v1038q180 86 520 86q91 0 189 -6l-78 -313q-64 38 -127 38l-45 -5v-838h-459z" />
<glyph unicode="s" horiz-adv-x="919" d="M33 66l114 286q84 -63 179 -63q67 0 67 50q0 58 -98 101q-236 100 -236 308q0 162 114 269t294 107q221 0 375 -86l-109 -256q-68 55 -151 56q-72 0 -72 -58q0 -61 98 -106q150 -68 209 -150q49 -66 49 -170q0 -170 -124 -272t-345 -102q-225 0 -364 86z" />
<glyph unicode="t" horiz-adv-x="835" d="M51 803v301h113v215l459 113v-328h147v-301h-147v-420q0 -100 67 -100q33 0 80 20v-280q-63 -45 -215 -46q-190 0 -295 103q-96 96 -96 258v465h-113z" />
<glyph unicode="u" horiz-adv-x="1259" d="M96 387v717h459v-754q0 -67 78 -67h2q39 0 70 10v811h458v-1038q-180 -86 -532 -86q-272 0 -398 88q-137 96 -137 319z" />
<glyph unicode="v" horiz-adv-x="1138" d="M-2 1104h485l80 -479q16 -92 23 -201h6q4 49 26 201l91 479h432l-342 -1104h-457z" />
<glyph unicode="w" horiz-adv-x="1712" d="M14 1104h453l74 -479q16 -100 16 -193h2q12 80 31 191l108 481h371l100 -479q20 -96 25 -193h4q8 80 21 191l81 481h398l-291 -1104h-432l-94 406q-18 76 -23 178h-2q-2 -49 -22 -178l-97 -406h-432z" />
<glyph unicode="x" horiz-adv-x="1159" d="M-20 0l350 567l-316 537h480l106 -234h4l121 234h424l-326 -508l357 -596h-506l-109 258h-6l-117 -258h-462z" />
<glyph unicode="y" horiz-adv-x="1138" d="M-2 1104h483l74 -486q16 -104 20 -206h5q4 47 30 209l99 483h432l-488 -1544h-477l172 440z" />
<glyph unicode="z" horiz-adv-x="944" d="M41 0l287 803h-246v301h805l-258 -803h258v-301h-846z" />
<glyph unicode="{" horiz-adv-x="899" d="M41 575v228q201 0 201 131v258q0 416 585 416v-219q-113 0 -154.5 -38t-41.5 -128v-289q0 -207 -221 -244q2 -2 0 -4q98 -16 157 -78q63 -70 64 -178v-293q0 -88 43 -126t153 -38v-223q-586 0 -585 418v262q0 145 -201 145z" />
<glyph unicode="|" horiz-adv-x="552" d="M102 -440v2048h349v-2048h-349z" />
<glyph unicode="}" horiz-adv-x="899" d="M72 -27q111 0 153.5 38t42.5 126v293q0 109 66 178q59 61 158 78q-4 4 -3 4q-221 37 -221 244v289q0 90 -42 128t-154 38v219q586 0 585 -416v-258q0 -131 201 -131v-228q-201 0 -201 -145v-262q0 -418 -585 -418v223z" />
<glyph unicode="~" horiz-adv-x="1327" d="M131 813q86 172 268 186q98 8 242.5 -61.5t216.5 -63.5q162 14 223 154l115 -295q-57 -156 -268 -172q-98 -8 -247 61.5t-222 63.5q-154 -12 -213 -168z" />
<glyph unicode="&#xa1;" horiz-adv-x="763" d="M123 -440l98 860h352l99 -860h-549zM152 745q0 102 71.5 174t173.5 72t174 -72t72 -174q0 -100 -71.5 -172.5t-174.5 -72.5q-102 0 -173.5 71.5t-71.5 173.5z" />
<glyph unicode="&#xa2;" d="M164 719q0 193 98 321q90 115 240 154l-27 215h254l-24 -203q139 -14 206 -67l-84 -219q-43 29 -92 28q-133 0 -133 -227q0 -223 135 -223q53 0 92 28l86 -237q-70 -55 -215 -70l29 -219h-260l33 233q-338 86 -338 486z" />
<glyph unicode="&#xa3;" d="M102 0q244 260 244 487q0 70 -18 125h-205v262h131q-18 82 -18 173q0 154 104 258q125 123 365 122q262 0 413 -84l-92 -276q-82 43 -192 43q-168 0 -168 -174q0 -31 6 -62h278v-262h-243q6 -31 6 -88q0 -90 -39 -145h452v-379h-1024z" />
<glyph unicode="&#xa4;" d="M92 324l135 135q-74 117 -73 250q0 131 73 247l-135 136l137 137l136 -133q117 74 249 73q133 0 250 -73l135 133l138 -137l-136 -134q74 -113 74 -249q0 -137 -74 -252l136 -133l-138 -138l-135 133q-115 -72 -250 -71q-135 0 -249 74l-136 -136zM430 709 q0 -76 54.5 -130.5t129.5 -54.5q78 0 131.5 54.5t53.5 130.5t-54.5 130t-130.5 54t-130 -54.5t-54 -129.5z" />
<glyph unicode="&#xa5;" d="M33 1409h461l135 -440h4l151 440h412l-235 -518l182 16v-176l-246 14l-59 -131l305 15v-176l-314 14v-467h-432v467l-311 -14v176l303 -15l-57 131l-246 -14v176l180 -16z" />
<glyph unicode="&#xa6;" horiz-adv-x="552" d="M102 385h349v-825h-349v825zM102 780v828h349v-828h-349z" />
<glyph unicode="&#xa7;" d="M111 549q0 203 206 336q-82 90 -81 209q0 137 102 229q113 100 299 100q223 0 364 -86l-90 -235q-80 51 -172 51q-94 0 -94 -72q0 -49 68 -106l237 -199q168 -141 168 -317q0 -186 -217 -330q104 -111 105 -254q0 -137 -113 -229q-121 -98 -311 -99q-242 0 -379 91 l96 266q84 -63 195 -64q94 0 94 60q0 47 -53 92l-240 201q-100 84 -142 163.5t-42 192.5zM428 616q0 -78 64 -131l215 -178q65 52 65 113q0 68 -67 125l-213 180q-63 -41 -64 -109z" />
<glyph unicode="&#xa8;" horiz-adv-x="614" d="M-111 1362q0 68 55.5 114t131.5 46q78 0 134 -46t56 -114t-56 -114t-134 -46q-76 0 -131.5 46t-55.5 114zM348 1362q0 68 55.5 114t133.5 46q76 0 132 -46t56 -114t-56.5 -114t-131.5 -46q-78 0 -133.5 46t-55.5 114z" />
<glyph unicode="&#xa9;" horiz-adv-x="1597" d="M70 705q0 303 214 516t515 213t515 -214t214 -515q0 -303 -214 -516.5t-515 -213.5t-515 213t-214 517zM233 705q0 -236 164 -403t402 -167t401.5 167t163.5 403t-164 402.5t-401 166.5q-238 0 -402 -167t-164 -402zM379 709q0 176 126 300t302 124q186 0 319 -148 l-137 -111q-86 86 -182 87q-102 0 -175 -75t-73 -177t73 -177t175 -75q96 0 184 88l142 -111q-147 -150 -326 -149q-176 0 -302 123.5t-126 300.5z" />
<glyph unicode="&#xaa;" horiz-adv-x="829" d="M61 911q0 131 121 195q94 49 279 63v19q0 51 -92 51q-96 0 -203 -41l-62 168q152 57 328 57q315 0 316 -295v-403q-111 -55 -328 -55q-358 0 -359 241zM338 922q0 -88 88 -88q19 0 35 4v194q-123 -12 -123 -110z" />
<glyph unicode="&#xab;" horiz-adv-x="1187" d="M41 684l299 524l252 -139l-219 -385l219 -383l-252 -139zM555 684l299 524l252 -139l-219 -385l219 -383l-252 -139z" />
<glyph unicode="&#xac;" d="M178 530v287h873v-573h-293v286h-580z" />
<glyph unicode="&#xad;" horiz-adv-x="753" d="M74 522v326h606v-326h-606z" />
<glyph unicode="&#xae;" horiz-adv-x="1597" d="M70 705q0 303 214 516t515 213t515 -214t214 -515q0 -303 -214 -516.5t-515 -213.5t-515 213t-214 517zM233 705q0 -236 164 -403t402 -167t401.5 167t163.5 403t-165 404.5t-400 168.5q-236 0 -401 -169t-165 -404zM530 315v770q106 53 230 54q162 0 248 -84 q70 -68 69 -164q0 -176 -178 -236l236 -340h-224l-198 320h-6v-320h-177zM707 752h26q88 0 125 29.5t37 105.5q0 106 -143 106q-27 0 -45 -6v-235z" />
<glyph unicode="&#xaf;" horiz-adv-x="614" d="M-68 1270v225h750v-225h-750z" />
<glyph unicode="&#xb0;" horiz-adv-x="839" d="M82 1100q0 139 99.5 238.5t238.5 99.5t238.5 -99.5t99.5 -238.5t-99.5 -238.5t-238.5 -99.5t-238.5 99.5t-99.5 238.5zM285 1100q0 -55 40 -95t95 -40t95 40t40 95t-40 95t-95 40t-95 -40t-40 -95z" />
<glyph unicode="&#xb1;" d="M178 129v258h873v-258h-873zM178 735v258h293v258h287v-258h293v-258h-293v-258h-287v258h-293z" />
<glyph unicode="&#xb2;" horiz-adv-x="819" d="M41 516l297 438q68 100 68 156q0 84 -111 84q-68 0 -145 -29l-72 199q115 57 289 57q352 0 352 -268q0 -109 -125 -258l-105 -125h248v-254h-696z" />
<glyph unicode="&#xb3;" horiz-adv-x="819" d="M53 565l80 211q74 -37 176 -37q104 0 105 66q0 86 -176 86v166q168 16 168 88q0 63 -105 63q-78 0 -145 -32l-74 190q123 59 291 59q162 0 249 -64.5t87 -174.5q0 -104 -105 -162q141 -67 141 -217q0 -135 -107.5 -218t-279.5 -83q-182 0 -305 59z" />
<glyph unicode="&#xb4;" horiz-adv-x="614" d="M78 1210l135 308q90 51 227 51q149 0 178 -66l-292 -293h-248z" />
<glyph unicode="&#xb5;" horiz-adv-x="1269" d="M96 -440v1544h459v-844q37 -10 72 -10q63 0 88 12v842h459v-1038q-166 -86 -390 -86q-133 0 -229 36v-456h-459z" />
<glyph unicode="&#xb6;" d="M35 965q0 225 162 340q147 104 401 104h555v-188h-76v-1661h-256v1661h-153v-1661h-260v989q-172 37 -272.5 145.5t-100.5 270.5z" />
<glyph unicode="&#xb7;" horiz-adv-x="655" d="M82 705q0 102 72.5 173.5t173.5 71.5q102 0 173.5 -71.5t71.5 -173.5q0 -100 -71.5 -173t-173.5 -73q-100 0 -173 72.5t-73 173.5z" />
<glyph unicode="&#xb8;" horiz-adv-x="614" d="M-4 -438l70 129q53 -6 100 -6q180 0 180 59q0 43 -117 43q-45 0 -114 -6l67 115q80 6 142 6q294 0 294 -154q0 -94 -114.5 -145.5t-317.5 -51.5q-90 0 -190 11z" />
<glyph unicode="&#xb9;" horiz-adv-x="819" d="M102 1280q242 27 308 129h225v-893h-311l2 600q-82 -18 -185 -20z" />
<glyph unicode="&#xba;" horiz-adv-x="829" d="M51 1049q0 166 99.5 271t263.5 105q166 0 265 -105t99 -271q0 -168 -99 -273.5t-265 -105.5t-264.5 105.5t-98.5 273.5zM352 1055q0 -182 62 -183q63 1 63 181q0 184 -63 184q-61 0 -62 -182z" />
<glyph unicode="&#xbb;" horiz-adv-x="1187" d="M82 301l219 383l-219 385l252 139l299 -524l-299 -522zM596 301l219 383l-219 385l252 139l299 -524l-299 -522z" />
<glyph unicode="&#xbc;" horiz-adv-x="1843" d="M41 1280q250 27 309 129h228v-893h-312v600q-82 -18 -186 -20zM506 14l594 1475l233 -92l-596 -1475zM1073 147v177l328 571h301l-2 -582h61v-166h-59v-147h-297v147h-332zM1237 313h166v152q0 68 4 156h-4q-18 -41 -78 -152z" />
<glyph unicode="&#xbd;" horiz-adv-x="1843" d="M41 1280q250 27 309 129h228v-893h-312v600q-82 -18 -186 -20zM473 14l594 1475l233 -92l-595 -1475zM1063 0l299 438q68 98 68 156q0 84 -111 84q-51 0 -119 -27l-74 199q119 55 265 55q352 0 352 -268q0 -109 -125 -258l-105 -125h248v-254h-698z" />
<glyph unicode="&#xbe;" horiz-adv-x="1843" d="M51 565l80 211q74 -37 176 -37q104 0 105 66q0 86 -176 86v166q168 16 167 88q0 63 -104 63q-78 0 -145 -32l-74 190q123 59 291 59q162 0 249 -64.5t87 -174.5q0 -104 -105 -162q139 -65 139 -217q0 -135 -106.5 -218t-278.5 -83q-182 0 -305 59zM565 14l594 1475 l234 -92l-596 -1475zM1083 147v177l328 571h301l-2 -582h62v-166h-60v-147h-297v147h-332zM1245 313h168v152q0 68 4 156h-4q-18 -39 -78 -152z" />
<glyph unicode="&#xbf;" horiz-adv-x="1036" d="M61 -88q0 242 310 350l20 162h350l37 -289q-231 -45 -231 -170q0 -115 160 -115q86 0 196 50l113 -273q-176 -86 -410 -86q-256 0 -400.5 100.5t-144.5 270.5zM319 750q0 102 73 173.5t173 71.5q102 0 174 -71.5t72 -173.5q0 -100 -71.5 -173t-174.5 -73 q-100 0 -173 72.5t-73 173.5z" />
<glyph unicode="&#xc0;" horiz-adv-x="1312" d="M-20 0l438 1409h477l438 -1409h-489l-39 182h-361l-45 -182h-419zM258 1808q29 66 174 66q139 0 230 -53l137 -308h-248zM508 449h237l-83 382q-18 88 -25 173h-4l-29 -170z" />
<glyph unicode="&#xc1;" horiz-adv-x="1312" d="M-20 0l438 1409h477l438 -1409h-489l-39 182h-361l-45 -182h-419zM504 1513l135 308q92 53 229 53q147 0 176 -66l-292 -295h-248zM508 449h237l-83 382q-18 88 -25 173h-4l-29 -170z" />
<glyph unicode="&#xc2;" horiz-adv-x="1312" d="M-20 0l438 1409h477l438 -1409h-489l-39 182h-361l-45 -182h-419zM313 1593l228 228q45 45 112 45q68 0 113 -45l227 -228l-121 -112l-219 149l-217 -149zM508 449h237l-83 382q-18 88 -25 173h-4l-29 -170z" />
<glyph unicode="&#xc3;" horiz-adv-x="1312" d="M-20 0l438 1409h477l438 -1409h-489l-39 182h-361l-45 -182h-419zM285 1686q57 117 184 126q66 6 164 -41t147 -42q111 10 152 104l78 -201q-39 -106 -183 -119q-68 -6 -168 42.5t-149 43.5q-102 -8 -148 -114zM508 449h237l-83 382q-18 88 -25 173h-4l-29 -170z" />
<glyph unicode="&#xc4;" horiz-adv-x="1312" d="M-20 0l438 1409h477l438 -1409h-489l-39 182h-361l-45 -182h-419zM238 1655q0 68 55 115t131 47q78 0 134 -47t56 -115t-56 -114t-134 -46q-76 0 -131 46t-55 114zM508 449h237l-83 382q-18 88 -25 173h-4l-29 -170zM698 1655q0 68 55.5 115t131.5 47q78 0 134 -47 t56 -115t-56 -114t-134 -46q-76 0 -131.5 46t-55.5 114z" />
<glyph unicode="&#xc5;" horiz-adv-x="1312" d="M-20 0l438 1409h477l438 -1409h-489l-39 182h-361l-45 -182h-419zM457 1692q0 82 57 139t139 57t140.5 -57t58.5 -139t-57.5 -139.5t-139.5 -57.5t-140 57.5t-58 139.5zM508 449h240l-86 382q-20 88 -25 173h-4l-29 -170zM582 1692q0 -31 21.5 -52.5t49.5 -21.5 q31 0 52.5 21.5t21.5 52.5t-21.5 52t-52.5 21q-29 0 -50 -21.5t-21 -51.5z" />
<glyph unicode="&#xc6;" horiz-adv-x="1579" d="M-51 0l594 1409h823v-317h-311l47 -228h264v-309h-201l49 -238h304v-317h-701l-20 182h-359l-65 -182h-424zM547 457h225l-43 372q-8 66 -8 148h-4q-6 -39 -39 -148z" />
<glyph unicode="&#xc7;" horiz-adv-x="1032" d="M70 705q0 299 137 495q158 229 450 230q213 0 336 -87l-94 -288q-55 31 -133 30q-209 0 -209 -376q0 -147 47 -246q53 -117 158 -117q70 0 129 33l102 -309q-117 -90 -342 -90q-295 0 -450 227q-131 195 -131 498zM258 -438l70 129q53 -6 100 -6q180 0 180 59 q0 43 -116 43q-47 0 -115 -6l65 115q80 6 144 6q295 0 295 -154q0 -94 -115 -145.5t-320 -51.5q-88 0 -188 11z" />
<glyph unicode="&#xc8;" horiz-adv-x="970" d="M109 0v1409h786v-317h-309v-228h260v-309h-260v-238h309v-317h-786zM147 1808q29 66 175 66q139 0 229 -53l137 -308h-248z" />
<glyph unicode="&#xc9;" horiz-adv-x="970" d="M109 0v1409h786v-317h-309v-228h260v-309h-260v-238h309v-317h-786zM317 1513l136 308q92 53 229 53q147 0 176 -66l-293 -295h-248z" />
<glyph unicode="&#xca;" horiz-adv-x="970" d="M109 0v1409h786v-317h-309v-228h260v-309h-260v-238h309v-317h-786zM143 1593l228 228q45 45 112 45q68 0 113 -45l227 -228l-121 -112l-219 149l-217 -149z" />
<glyph unicode="&#xcb;" horiz-adv-x="970" d="M84 1655q0 68 55.5 115t130.5 47q78 0 134.5 -47t56.5 -115t-56.5 -114t-134.5 -46q-76 0 -131 46t-55 114zM111 0v1409h786v-317h-309v-228h260v-309h-260v-238h309v-317h-786zM543 1655q0 68 55 115t133 47q76 0 132.5 -47t56.5 -115t-56.5 -114t-132.5 -46 q-78 0 -133 46t-55 114z" />
<glyph unicode="&#xcc;" horiz-adv-x="694" d="M-10 1808q29 66 176 66q137 0 229 -53l135 -308h-247zM106 0v1409h478v-1409h-478z" />
<glyph unicode="&#xcd;" horiz-adv-x="694" d="M111 0v1409h477v-1409h-477zM164 1513l135 308q92 53 229 53q148 0 177 -66l-293 -295h-248z" />
<glyph unicode="&#xce;" horiz-adv-x="694" d="M8 1591l225 230q45 45 113 45q70 0 115 -45l225 -230l-121 -112l-219 151l-217 -151zM109 0v1409h477v-1409h-477z" />
<glyph unicode="&#xcf;" horiz-adv-x="694" d="M-72 1655q0 68 55.5 115t131.5 47q78 0 134 -47t56 -115t-56 -114t-134 -46q-76 0 -131.5 46t-55.5 114zM106 0v1409h478v-1409h-478zM389 1655q0 68 55.5 115t133.5 47q76 0 132 -47t56 -115t-56.5 -114t-131.5 -46q-78 0 -133.5 46t-55.5 114z" />
<glyph unicode="&#xd0;" horiz-adv-x="1351" d="M49 600v283h82v460q207 86 457 87q371 0 547 -220q147 -184 147 -508q0 -317 -143 -501q-172 -221 -531 -221q-301 0 -477 88v532h-82zM592 301q8 -2 26 -2q100 0 144 78q49 92 49 336q0 229 -44 319t-155 90q-12 0 -20 -2v-237h90v-283h-90v-299z" />
<glyph unicode="&#xd1;" horiz-adv-x="1351" d="M109 0v1409h389l286 -455q37 -57 64 -123h4q-8 70 -8 127v451h399v-1409h-348l-336 555q-33 55 -57 123h-4q8 -72 8 -133v-545h-397zM301 1686q57 117 184 126q66 6 164.5 -41t147.5 -42q111 10 151 104l78 -201q-39 -106 -182 -119q-68 -6 -168.5 42.5t-149.5 43.5 q-102 -8 -147 -114z" />
<glyph unicode="&#xd2;" horiz-adv-x="1323" d="M70 705q0 319 139 509q156 215 455 216q299 0 452 -216q137 -190 137 -509t-137 -510q-154 -215 -452 -215q-299 0 -455 215q-139 190 -139 510zM309 1808q29 66 174 66q139 0 230 -53l137 -308h-248zM557 723q0 -186 16 -270q25 -125 91 -125q104 0 104 395t-104 395 q-66 0 -91 -125q-16 -84 -16 -270z" />
<glyph unicode="&#xd3;" horiz-adv-x="1323" d="M70 705q0 319 139 509q156 215 455 216q299 0 452 -216q137 -190 137 -509t-137 -510q-154 -215 -452 -215q-299 0 -455 215q-139 190 -139 510zM475 1513l135 308q92 53 230 53q147 0 176 -66l-293 -295h-248zM557 723q0 -186 16 -270q25 -125 91 -125q104 0 104 395 t-104 395q-66 0 -91 -125q-16 -84 -16 -270z" />
<glyph unicode="&#xd4;" horiz-adv-x="1323" d="M70 705q0 319 139 509q156 215 455 216q299 0 452 -216q137 -190 137 -509t-137 -510q-154 -215 -452 -215q-299 0 -455 215q-139 190 -139 510zM324 1593l227 228q45 45 113 45t112 -45l228 -228l-121 -112l-219 149l-218 -149zM557 723q0 -186 16 -270q25 -125 91 -125 q104 0 104 395t-104 395q-66 0 -91 -125q-16 -84 -16 -270z" />
<glyph unicode="&#xd5;" horiz-adv-x="1323" d="M70 705q0 319 139 509q156 215 455 216q299 0 452 -216q137 -190 137 -509t-137 -510q-154 -215 -452 -215q-299 0 -455 215q-139 190 -139 510zM305 1686q57 117 184 126q66 6 164.5 -41t147.5 -42q111 10 151 104l78 -201q-39 -106 -182 -119q-68 -6 -168 42.5 t-150 43.5q-102 -8 -147 -114zM557 723q0 -186 16 -270q25 -125 91 -125q104 0 104 395t-104 395q-66 0 -91 -125q-16 -84 -16 -270z" />
<glyph unicode="&#xd6;" horiz-adv-x="1323" d="M70 705q0 319 139 509q156 215 455 216q299 0 452 -216q137 -190 137 -509t-137 -510q-154 -215 -452 -215q-299 0 -455 215q-139 190 -139 510zM246 1655q0 68 54 115t132 47q76 0 132.5 -47t56.5 -115t-56.5 -114t-132.5 -46q-78 0 -132 46t-54 114zM557 723 q0 -186 16 -270q25 -125 91 -125q104 0 104 395t-104 395q-66 0 -91 -125q-16 -84 -16 -270zM707 1655q0 68 54 115t132 47q76 0 132 -47t56 -115t-56 -114t-132 -46q-78 0 -132 46t-54 114z" />
<glyph unicode="&#xd7;" d="M166 932l190 190l258 -258l256 258l193 -192l-258 -256l258 -258l-191 -191l-258 258l-256 -258l-190 193l254 256z" />
<glyph unicode="&#xd8;" horiz-adv-x="1323" d="M70 705q0 319 139 509q156 215 455 216q180 0 313 -84l108 174l119 -74l-121 -191q170 -190 170 -550q0 -319 -137 -510q-154 -215 -452 -215q-195 0 -334 94l-119 -189l-119 74l135 211q-158 193 -157 535zM524 637l250 391q-33 123 -110 123q-139 0 -140 -428v-86z M551 420q33 -125 113 -125q137 0 137 428q0 59 -2 88z" />
<glyph unicode="&#xd9;" horiz-adv-x="1298" d="M109 428v981h477v-975q0 -98 82 -98q78 0 77 100v973h445v-979q0 -215 -160 -340q-147 -115 -381 -115q-231 0 -381 115q-160 125 -159 338zM315 1808q29 66 174 66q139 0 230 -53l137 -308h-248z" />
<glyph unicode="&#xda;" horiz-adv-x="1298" d="M109 428v981h477v-975q0 -98 82 -98q78 0 77 100v973h445v-979q0 -215 -160 -340q-147 -115 -381 -115q-231 0 -381 115q-160 125 -159 338zM475 1513l135 308q92 53 230 53q147 0 176 -66l-293 -295h-248z" />
<glyph unicode="&#xdb;" horiz-adv-x="1298" d="M109 428v981h477v-975q0 -98 82 -98q78 0 77 100v973h445v-979q0 -215 -160 -340q-147 -115 -381 -115q-231 0 -381 115q-160 125 -159 338zM326 1593l227 228q45 45 113 45t112 -45l228 -228l-121 -112l-219 149l-217 -149z" />
<glyph unicode="&#xdc;" horiz-adv-x="1298" d="M109 428v981h477v-975q0 -98 82 -98q78 0 77 100v973h445v-979q0 -215 -160 -340q-147 -115 -381 -115q-231 0 -381 115q-160 125 -159 338zM248 1655q0 68 54 115t132 47q76 0 132.5 -47t56.5 -115t-56.5 -114t-132.5 -46q-78 0 -132 46t-54 114zM709 1655q0 68 54 115 t132 47q76 0 132 -47t56 -115t-56 -114t-132 -46q-78 0 -132 46t-54 114z" />
<glyph unicode="&#xdd;" horiz-adv-x="1150" d="M-29 1409h504l125 -428h2l135 428h443l-371 -850v-559h-475v559zM438 1513l135 308q92 53 230 53q147 0 176 -66l-293 -295h-248z" />
<glyph unicode="&#xde;" horiz-adv-x="1271" d="M109 0v1409h464v-211q18 4 64 4q582 0 582 -469q0 -213 -123 -338q-141 -141 -416 -141q-37 0 -76 2l-31 2v-258h-464zM573 535h17q100 0 141 49q35 45 35 151q0 201 -158 201q-25 0 -35 -2v-399z" />
<glyph unicode="&#xdf;" horiz-adv-x="1339" d="M96 0v983q0 303 150.5 474t417.5 171q246 0 401 -160q147 -154 147 -378q0 -113 -20 -175q-127 -33 -127 -127q0 -61 86 -137q135 -116 135 -286q0 -186 -127 -291q-113 -92 -287 -92q-180 0 -260 75l66 295q45 -39 92 -39q66 0 66 64q0 59 -74 117q-121 94 -121 256 q0 160 121 239q8 31 8 80q0 250 -106 250q-111 0 -111 -295v-1024h-457z" />
<glyph unicode="&#xe0;" horiz-adv-x="1189" d="M49 348q0 193 187 289q145 74 430 98v33q0 80 -144 80q-152 0 -311 -68l-94 256q233 88 495 88q481 0 482 -448v-610q-168 -86 -498 -86q-547 0 -547 368zM264 1503q29 66 178 66q137 0 226 -51l137 -308h-248zM473 369q0 -139 141 -140q40 1 52 7v299q-193 -8 -193 -166 z" />
<glyph unicode="&#xe1;" horiz-adv-x="1189" d="M49 348q0 193 187 289q145 74 430 98v33q0 80 -144 80q-152 0 -311 -68l-94 256q233 88 495 88q481 0 482 -448v-610q-168 -86 -498 -86q-547 0 -547 368zM471 1210l135 308q90 51 228 51q149 0 178 -66l-293 -293h-248zM473 369q0 -139 141 -140q40 1 52 7v299 q-193 -8 -193 -166z" />
<glyph unicode="&#xe2;" horiz-adv-x="1189" d="M49 348q0 193 187 289q145 74 430 98v33q0 80 -144 80q-152 0 -311 -68l-94 256q233 88 495 88q481 0 482 -448v-610q-168 -86 -498 -86q-547 0 -547 368zM274 1288l228 228q47 47 112 47q66 0 113 -47l227 -228l-120 -112l-220 149l-219 -149zM473 369q0 -139 141 -140 q40 1 52 7v299q-193 -8 -193 -166z" />
<glyph unicode="&#xe3;" horiz-adv-x="1189" d="M49 348q0 193 187 289q145 74 430 98v33q0 80 -144 80q-152 0 -311 -68l-94 256q233 88 495 88q481 0 482 -448v-610q-168 -86 -498 -86q-547 0 -547 368zM240 1380q55 117 184 127q66 6 164 -41t147 -43q109 8 152 105l78 -201q-39 -106 -183 -117q-68 -4 -168 42 t-149 42q-102 -8 -148 -112zM473 369q0 -139 141 -140q40 1 52 7v299q-193 -8 -193 -166z" />
<glyph unicode="&#xe4;" horiz-adv-x="1189" d="M49 348q0 193 187 289q145 74 430 98v33q0 80 -144 80q-152 0 -311 -68l-94 256q233 88 495 88q481 0 482 -448v-610q-168 -86 -498 -86q-547 0 -547 368zM199 1362q0 68 55 114t131 46q78 0 134 -46t56 -114t-56 -114t-134 -46q-76 0 -131 46t-55 114zM473 369 q0 -139 141 -140q40 1 52 7v299q-193 -8 -193 -166zM659 1362q0 68 55.5 114t131.5 46q78 0 134 -46t56 -114t-56 -114t-134 -46q-76 0 -131.5 46t-55.5 114z" />
<glyph unicode="&#xe5;" horiz-adv-x="1189" d="M49 348q0 193 187 289q145 74 430 98v33q0 80 -144 80q-152 0 -311 -68l-94 256q233 88 495 88q481 0 482 -448v-610q-168 -86 -498 -86q-547 0 -547 368zM418 1386q0 82 57 140.5t139 58.5t139.5 -57t57.5 -139t-57.5 -140.5t-139.5 -58.5t-139 57.5t-57 138.5zM473 369 q0 -139 141 -140q40 0 52 4v302q-193 -8 -193 -166zM541 1386q0 -29 21.5 -50t51.5 -21q31 0 52.5 21t21.5 50q0 31 -21.5 52.5t-52.5 21.5t-52 -21.5t-21 -52.5z" />
<glyph unicode="&#xe6;" horiz-adv-x="1751" d="M49 348q0 188 178 285q139 76 418 102v33q0 80 -131 80q-145 0 -309 -68l-94 256q227 88 485 88q186 0 278 -104q131 104 304 104q254 0 387 -157q125 -150 125 -418q0 -33 -2 -68l-617 -84q35 -113 186 -112q176 0 291 53l101 -272q-182 -86 -463 -86q-178 0 -309 122 q-102 -123 -347 -122q-223 0 -348 88q-133 94 -133 280zM461 367q0 -135 94 -136q90 1 90 91v213q-184 -16 -184 -168zM1038 618l230 33q0 215 -117 215q-125 0 -113 -248z" />
<glyph unicode="&#xe7;" horiz-adv-x="878" d="M61 559q0 270 150 426q133 139 332 139t297 -86l-88 -247q-41 35 -97 34q-131 0 -131 -264q0 -262 131 -262q59 0 97 37l92 -270q-90 -86 -293 -86q-219 0 -350 145q-139 156 -140 434zM141 -438l70 129q53 -6 100 -6q180 0 181 59q0 43 -117 43q-47 0 -115 -6l66 115 q80 6 143 6q295 0 295 -154q0 -94 -114.5 -145.5t-319.5 -51.5q-88 0 -189 11z" />
<glyph unicode="&#xe8;" horiz-adv-x="1189" d="M61 555q0 252 136 403q145 166 415 166q256 0 389 -157q127 -147 127 -410q0 -35 -2 -72l-628 -86q39 -113 196 -112q178 0 301 55l99 -276q-186 -86 -461 -86q-276 0 -430 172q-141 156 -142 403zM238 1503q29 66 178 66q137 0 225 -51l137 -308h-248zM461 670 q0 -29 4 -60l240 39q0 215 -113 215q-131 0 -131 -194z" />
<glyph unicode="&#xe9;" horiz-adv-x="1189" d="M61 555q0 252 136 403q145 166 415 166q256 0 389 -157q127 -147 127 -410q0 -35 -2 -72l-628 -86q39 -113 196 -112q178 0 301 55l99 -276q-186 -86 -461 -86q-276 0 -430 172q-141 156 -142 403zM461 670q0 -29 4 -60l240 39q0 215 -113 215q-131 0 -131 -194z M465 1210l135 308q90 51 227 51q150 0 179 -66l-293 -293h-248z" />
<glyph unicode="&#xea;" horiz-adv-x="1189" d="M61 555q0 252 136 403q145 166 415 166q256 0 389 -157q127 -147 127 -410q0 -35 -2 -72l-628 -86q39 -113 196 -112q178 0 301 55l99 -276q-186 -86 -461 -86q-276 0 -430 172q-141 156 -142 403zM266 1288l228 228q47 47 112 47q66 0 113 -47l227 -228l-121 -112 l-219 149l-219 -149zM461 670q0 -29 4 -60l240 39q0 215 -113 215q-131 0 -131 -194z" />
<glyph unicode="&#xeb;" horiz-adv-x="1189" d="M61 555q0 252 136 403q145 166 415 166q256 0 389 -157q127 -147 127 -410q0 -35 -2 -72l-628 -86q39 -113 196 -112q178 0 301 55l99 -276q-186 -86 -461 -86q-276 0 -430 172q-141 156 -142 403zM190 1362q0 68 55.5 114t131.5 46q78 0 134 -46t56 -114t-56 -114 t-134 -46q-76 0 -131.5 46t-55.5 114zM461 670q0 -29 4 -60l240 39q0 215 -113 215q-131 0 -131 -194zM649 1362q0 68 55.5 114t133.5 46q76 0 132 -46t56 -114t-56.5 -114t-131.5 -46q-78 0 -133.5 46t-55.5 114z" />
<glyph unicode="&#xec;" horiz-adv-x="651" d="M-27 1503q29 66 179 66q137 0 227 -51l135 -308h-248zM96 0v1104h459v-1104h-459z" />
<glyph unicode="&#xed;" horiz-adv-x="651" d="M96 0v1104h459v-1104h-459zM137 1210l135 308q90 51 228 51q149 0 178 -66l-293 -293h-248z" />
<glyph unicode="&#xee;" horiz-adv-x="651" d="M-14 1288l227 228q47 47 113 47t112 -47l228 -228l-121 -112l-219 149l-220 -149zM96 0v1104h459v-1104h-459z" />
<glyph unicode="&#xef;" horiz-adv-x="651" d="M-92 1362q0 68 54 114t132 46t133.5 -46t55.5 -114t-55.5 -114t-133.5 -46t-132 46t-54 114zM94 0v1104h459v-1104h-459zM369 1362q0 68 54 114t132 46q76 0 132 -46t56 -114t-56 -114t-132 -46q-78 0 -132 46t-54 114z" />
<glyph unicode="&#xf0;" horiz-adv-x="1236" d="M61 553q0 252 139.5 411.5t348.5 159.5q25 0 53 -4q-27 72 -70 131l-186 -63q-49 90 -119 166l174 57q-39 45 -102 100l393 125q72 -59 101 -94l170 55q74 -82 124 -161l-169 -58q245 -381 245 -805q0 -270 -148.5 -431.5t-400.5 -161.5t-402.5 159.5t-150.5 413.5z M516 569q0 -154 21.5 -214t76.5 -60q95 -1 95 280q0 172 -37 275q-18 6 -39 6q-59 0 -82 -45q-35 -63 -35 -242z" />
<glyph unicode="&#xf1;" horiz-adv-x="1269" d="M96 0v1040q207 84 520 84q557 0 558 -370v-754h-459v750q0 94 -99 94q-18 0 -61 -6v-838h-459zM270 1380q55 117 185 127q66 6 164 -41t147 -43q109 8 152 105l77 -201q-39 -106 -182 -117q-68 -4 -168 42t-149 42q-102 -8 -148 -112z" />
<glyph unicode="&#xf2;" horiz-adv-x="1208" d="M61 553q0 254 146.5 412.5t396.5 158.5t400 -161q143 -156 143 -410q0 -256 -143 -412q-150 -162 -400 -161q-250 0 -399 161q-143 156 -144 412zM236 1503q29 66 178 66q137 0 225 -51l137 -308h-248zM516 561q0 -274 88 -274t88 274q0 279 -88 279t-88 -279z" />
<glyph unicode="&#xf3;" horiz-adv-x="1208" d="M61 553q0 254 146.5 412.5t396.5 158.5t400 -161q143 -156 143 -410q0 -256 -143 -412q-150 -162 -400 -161q-250 0 -399 161q-143 156 -144 412zM453 1210l135 308q90 51 227 51q149 0 178 -66l-293 -293h-247zM516 561q0 -274 88 -274t88 274q0 279 -88 279t-88 -279z " />
<glyph unicode="&#xf4;" horiz-adv-x="1208" d="M61 553q0 254 146.5 412.5t396.5 158.5t400 -161q143 -156 143 -410q0 -256 -143 -412q-150 -162 -400 -161q-250 0 -399 161q-143 156 -144 412zM264 1288l228 228q47 47 112 47q66 0 113 -47l227 -228l-121 -112l-219 149l-219 -149zM516 561q0 -274 88 -274t88 274 q0 279 -88 279t-88 -279z" />
<glyph unicode="&#xf5;" horiz-adv-x="1208" d="M61 553q0 254 146.5 412.5t396.5 158.5t400 -161q143 -156 143 -410q0 -256 -143 -412q-150 -162 -400 -161q-250 0 -399 161q-143 156 -144 412zM242 1380q55 117 184 127q66 6 164 -41t147 -43q109 8 152 105l78 -201q-39 -106 -183 -117q-68 -4 -168 42t-149 42 q-102 -8 -148 -112zM516 561q0 -274 88 -274t88 274q0 279 -88 279t-88 -279z" />
<glyph unicode="&#xf6;" horiz-adv-x="1208" d="M61 553q0 254 146.5 412.5t396.5 158.5t400 -161q143 -156 143 -410q0 -256 -143 -412q-150 -162 -400 -161q-250 0 -399 161q-143 156 -144 412zM186 1362q0 68 54.5 114t132.5 46q76 0 132 -46t56 -114t-56 -114t-132 -46q-78 0 -132.5 46t-54.5 114zM516 561 q0 -274 88 -274t88 274q0 279 -88 279t-88 -279zM647 1362q0 68 54.5 114t132.5 46q76 0 132 -46t56 -114t-56.5 -114t-131.5 -46q-78 0 -132.5 46t-54.5 114z" />
<glyph unicode="&#xf7;" d="M178 573v201h873v-201h-873zM449 336q0 68 48 117t117 49q70 0 118 -49t48 -117q0 -70 -48 -118t-118 -48t-117.5 48t-47.5 118zM449 1012q0 70 48 118t117 48q70 0 118 -48t48 -118t-48 -118t-118 -48t-117.5 48t-47.5 118z" />
<glyph unicode="&#xf8;" horiz-adv-x="1224" d="M61 553q0 252 150.5 411.5t400.5 159.5q131 0 238 -47l96 168l90 -51l-96 -166q223 -158 223 -475q0 -254 -149.5 -413.5t-401.5 -159.5q-135 0 -250 51l-98 -174l-90 51l102 174q-215 158 -215 471zM479 563q0 -63 6 -117l213 369q-33 57 -86 57q-133 0 -133 -309z M524 311q35 -57 88 -57q133 0 133 307q0 70 -8 119z" />
<glyph unicode="&#xf9;" horiz-adv-x="1259" d="M96 387v717h459v-754q0 -68 80 -67q39 0 70 10v811h458v-1038q-180 -86 -532 -86q-272 0 -398 88q-137 96 -137 319zM270 1503q29 66 179 66q137 0 225 -51l137 -308h-248z" />
<glyph unicode="&#xfa;" horiz-adv-x="1259" d="M96 387v717h459v-754q0 -68 80 -67q39 0 70 10v811h458v-1038q-180 -86 -532 -86q-272 0 -398 88q-137 96 -137 319zM477 1210l135 308q90 51 228 51q149 0 178 -66l-293 -293h-248z" />
<glyph unicode="&#xfb;" horiz-adv-x="1259" d="M96 387v717h459v-754q0 -68 80 -67q39 0 70 10v811h458v-1038q-180 -86 -532 -86q-272 0 -398 88q-137 96 -137 319zM289 1288l227 228q47 47 113 47q68 0 114 -47l226 -228l-121 -112l-219 149l-217 -149z" />
<glyph unicode="&#xfc;" horiz-adv-x="1259" d="M96 387v717h459v-754q0 -68 80 -67q39 0 70 10v811h458v-1038q-180 -86 -532 -86q-272 0 -398 88q-137 96 -137 319zM211 1362q0 68 55.5 114t130.5 46q78 0 134.5 -46t56.5 -114t-56.5 -114t-134.5 -46q-76 0 -131 46t-55 114zM672 1362q0 68 55 114t131 46 q78 0 134.5 -46t56.5 -114t-56.5 -114t-134.5 -46q-76 0 -131 46t-55 114z" />
<glyph unicode="&#xfd;" horiz-adv-x="1138" d="M-2 1104h483l107 -625h2l119 625h432l-488 -1544h-483l188 440zM430 1210l135 308q90 51 228 51q149 0 178 -66l-293 -293h-248z" />
<glyph unicode="&#xfe;" horiz-adv-x="1257" d="M96 -440v2048h459v-518q88 31 178 30q193 0 320 -127q143 -143 143 -401q0 -276 -146.5 -439t-363.5 -163q-82 0 -131 12v-442h-459zM555 264q16 -6 35 -6q153 0 153 299q0 170 -34 238q-33 57 -111 57q-18 0 -43 -4v-584z" />
<glyph unicode="&#xff;" horiz-adv-x="1138" d="M-2 1104h483l107 -625h2l119 625h432l-488 -1544h-483l188 440zM176 1362q0 68 55.5 114t130.5 46q78 0 134.5 -46t56.5 -114t-56.5 -114t-134.5 -46q-76 0 -131 46t-55 114zM637 1362q0 68 55.5 114t130.5 46q78 0 134.5 -46t56.5 -114t-56.5 -114t-134.5 -46 q-76 0 -131 46t-55 114z" />
<glyph unicode="&#x152;" horiz-adv-x="1597" d="M70 705q0 725 610 725q92 0 178 -21h664v-317h-310v-228h261v-309h-261v-238h310v-317h-670q-70 -20 -168 -20q-614 0 -614 725zM553 715q0 -416 156 -416q36 0 61 8v813q-31 10 -61 10q-86 0 -123 -108q-33 -98 -33 -307z" />
<glyph unicode="&#x153;" horiz-adv-x="1777" d="M61 553q0 252 144.5 411.5t386.5 159.5q184 0 299 -120q47 51 134 85.5t177 34.5q256 0 389 -159q125 -150 125 -418q0 -35 -2 -70l-616 -84q35 -109 180 -108q172 0 299 55l98 -274q-176 -86 -463 -86q-211 0 -317 124q-129 -125 -303 -124q-246 0 -388.5 159.5 t-142.5 413.5zM500 563q0 -276 92 -276t92 274q0 279 -92 279t-92 -277zM1061 684q0 -31 4 -66l231 33q0 215 -118 215q-117 0 -117 -182z" />
<glyph unicode="&#x178;" horiz-adv-x="1150" d="M-29 1409h504l125 -428h2l135 428h443l-371 -850v-559h-475v559zM180 1655q0 68 55.5 115t131.5 47q78 0 134 -47t56 -115t-56.5 -114t-133.5 -46q-76 0 -131.5 46t-55.5 114zM641 1655q0 68 55.5 115t130.5 47q78 0 134.5 -47t56.5 -115t-56.5 -114t-134.5 -46 q-76 0 -131 46t-55 114z" />
<glyph unicode="&#x2c6;" horiz-adv-x="614" d="M-33 1288l228 228q47 47 112 47q66 0 113 -47l227 -228l-121 -112l-219 149l-219 -149z" />
<glyph unicode="&#x2dc;" horiz-adv-x="614" d="M-55 1380q55 117 182 127q66 6 165 -41t148 -43q109 8 152 105l78 -201q-39 -106 -183 -117q-68 -4 -168 42t-151 42q-100 -8 -145 -112z" />
<glyph unicode="&#x2000;" horiz-adv-x="944" />
<glyph unicode="&#x2001;" horiz-adv-x="1888" />
<glyph unicode="&#x2002;" horiz-adv-x="944" />
<glyph unicode="&#x2003;" horiz-adv-x="1888" />
<glyph unicode="&#x2004;" horiz-adv-x="629" />
<glyph unicode="&#x2005;" horiz-adv-x="472" />
<glyph unicode="&#x2006;" horiz-adv-x="314" />
<glyph unicode="&#x2007;" horiz-adv-x="314" />
<glyph unicode="&#x2008;" horiz-adv-x="236" />
<glyph unicode="&#x2009;" horiz-adv-x="377" />
<glyph unicode="&#x200a;" horiz-adv-x="104" />
<glyph unicode="&#x2010;" horiz-adv-x="753" d="M74 522v326h606v-326h-606z" />
<glyph unicode="&#x2011;" horiz-adv-x="753" d="M74 522v326h606v-326h-606z" />
<glyph unicode="&#x2012;" horiz-adv-x="753" d="M74 522v326h606v-326h-606z" />
<glyph unicode="&#x2013;" horiz-adv-x="901" d="M0 559v254h901v-254h-901z" />
<glyph unicode="&#x2014;" horiz-adv-x="1802" d="M0 578v215h1802v-215h-1802z" />
<glyph unicode="&#x2018;" horiz-adv-x="727" d="M72 932l381 676h233l-203 -676q-84 -135 -241 -135q-145 0 -170 135z" />
<glyph unicode="&#x2019;" horiz-adv-x="727" d="M41 813l203 676q84 137 241 137q145 0 170 -137l-381 -676h-233z" />
<glyph unicode="&#x201a;" horiz-adv-x="727" d="M41 -346l203 676q84 137 241 137q145 0 170 -137l-381 -676h-233z" />
<glyph unicode="&#x201c;" horiz-adv-x="1255" d="M72 932l381 676h233l-203 -676q-84 -135 -241 -135q-145 0 -170 135zM600 932l381 676h233l-202 -676q-84 -135 -242 -135q-150 0 -170 135z" />
<glyph unicode="&#x201d;" horiz-adv-x="1255" d="M41 813l203 676q84 137 241 137q150 0 170 -137l-381 -676h-233zM569 813l203 676q84 137 242 137q145 0 170 -137l-381 -676h-234z" />
<glyph unicode="&#x201e;" horiz-adv-x="1255" d="M41 -346l203 676q84 137 241 137q150 0 170 -137l-381 -676h-233zM569 -346l203 676q84 137 242 137q145 0 170 -137l-381 -676h-234z" />
<glyph unicode="&#x2022;" horiz-adv-x="942" d="M82 756q0 162 113.5 275.5t275.5 113.5t275.5 -113.5t113.5 -275.5t-113.5 -275.5t-275.5 -113.5t-275.5 113.5t-113.5 275.5z" />
<glyph unicode="&#x2026;" horiz-adv-x="2088" d="M102 221q0 102 72 175t174 73t174 -72t72 -174t-71.5 -175t-174.5 -73q-100 0 -173 73t-73 173zM799 221q0 102 71.5 175t173.5 73t174 -72t72 -174t-71.5 -175t-174.5 -73q-100 0 -172.5 73t-72.5 173zM1495 221q0 102 71.5 175t174.5 73q102 0 174 -72t72 -174 t-72 -175t-174 -73q-100 0 -173 73t-73 173z" />
<glyph unicode="&#x202f;" horiz-adv-x="377" />
<glyph unicode="&#x2039;" horiz-adv-x="673" d="M41 684l299 524l252 -139l-219 -385l219 -383l-252 -139z" />
<glyph unicode="&#x203a;" horiz-adv-x="673" d="M82 301l219 383l-219 385l252 139l299 -524l-299 -522z" />
<glyph unicode="&#x205f;" horiz-adv-x="472" />
<glyph unicode="&#x2122;" horiz-adv-x="1597" d="M57 1257v152h561v-152h-178v-540h-200v540h-183zM596 717l113 692h239l119 -442l107 442h241l113 -692h-197l-55 448l-127 -448h-174l-131 444l-49 -444h-199z" />
<glyph unicode="&#x25fc;" horiz-adv-x="1105" d="M0 0v1106h1106v-1106h-1106z" />
</font>
</defs>
</svg>
