<?xml version="1.0" standalone="no"?>
<!DOCTYPE svg PUBLIC "-//W3C//DTD SVG 1.1//EN" "http://www.w3.org/Graphics/SVG/1.1/DTD/svg11.dtd" >
<svg xmlns="http://www.w3.org/2000/svg" xmlns:xlink="http://www.w3.org/1999/xlink" version="1.1">
<metadata></metadata>
<defs>
<font id="daxextrabold" horiz-adv-x="1191" >
<font-face units-per-em="2048" ascent="1638" descent="-410" />
<missing-glyph horiz-adv-x="540" />
<glyph horiz-adv-x="0" />
<glyph unicode="&#xd;" horiz-adv-x="540" />
<glyph unicode=" "  horiz-adv-x="540" />
<glyph unicode="&#x09;" horiz-adv-x="540" />
<glyph unicode="&#xa0;" horiz-adv-x="540" />
<glyph unicode="!" horiz-adv-x="720" d="M145 1409h465l-84 -883h-297zM164 195q0 88 63.5 150.5t151.5 62.5t150.5 -62.5t62.5 -150.5t-62.5 -151.5t-150.5 -63.5t-151.5 63t-63.5 152z" />
<glyph unicode="&#x22;" horiz-adv-x="964" d="M104 1356q57 76 162 76t162 -76l-63 -604h-197zM535 1356q61 76 163 76q101 0 162 -76l-63 -604h-199z" />
<glyph unicode="#" d="M82 424v186h190l39 224h-159v186h190l68 389h211l-66 -389h182l66 389h213l-66 -389h160v-184h-192l-39 -226h159v-184h-190l-72 -426h-211l72 426h-182l-74 -426h-213l74 424h-160zM483 610h183l41 226h-183z" />
<glyph unicode="$" d="M147 68l89 266q102 -59 219 -60q150 0 149 136q0 100 -176 184q-268 127 -268 383q0 164 99 284.5t269 151.5l-24 254h209l-25 -250q162 -10 268 -74l-73 -223q-98 53 -199 54q-66 0 -107.5 -35t-41.5 -95q0 -61 43 -106q37 -37 135 -88q145 -76 215 -166 q80 -103 80 -250q0 -164 -99.5 -281.5t-267.5 -152.5l25 -274h-213l24 264q-215 6 -330 78z" />
<glyph unicode="%" horiz-adv-x="1853" d="M104 940q0 199 64 326q84 164 266 164t266 -164q64 -127 64 -326t-64 -322q-84 -164 -266 -163q-182 0 -266 163q-63 123 -64 322zM348 950q0 -313 86 -313t86 313q0 315 -86 316q-86 0 -86 -316zM592 23l483 1409l185 -48l-482 -1407zM1090 467q0 201 63 326 q82 164 266 163q182 0 267 -163q63 -127 63 -326t-63 -324q-84 -164 -267 -163q-184 0 -266 163q-63 123 -63 324zM1333 477q0 -313 86 -313t86 313t-86 314q-86 0 -86 -314z" />
<glyph unicode="&#x26;" horiz-adv-x="1357" d="M74 397q0 268 284 379v4q-199 98 -198 293q0 160 126 258.5t332 98.5q240 0 379 -87l-112 -223q-90 41 -178 41q-158 0 -158 -131q0 -59 49 -94t129 -35q211 0 530 158l115 -228q-94 -45 -217 -75v-690q-158 -86 -487 -86q-283 0 -438.5 106.5t-155.5 310.5zM487 424 q0 -203 203 -203q49 1 84 15v454q-147 -31 -217 -93t-70 -173z" />
<glyph unicode="'" horiz-adv-x="536" d="M104 1356q57 76 164 76t164 -76l-65 -604h-197z" />
<glyph unicode="(" horiz-adv-x="851" d="M96 586q0 272 127 522t416 530l180 -98q-319 -446 -319 -954q0 -511 319 -957l-180 -98q-289 281 -418 535q-125 246 -125 520z" />
<glyph unicode=")" horiz-adv-x="851" d="M33 -371q322 449 321 957q0 506 -321 954l180 98q289 -281 416 -530.5t127 -521.5q0 -274 -125 -520q-129 -254 -418 -535z" />
<glyph unicode="*" horiz-adv-x="985" d="M88 1339q0 55 38 92t89 37t88 -37t37 -92q0 -53 -38 -90t-89 -37q-49 0 -87 37t-38 90zM190 1014q0 53 38 91t89 38t88 -38t37 -91t-36.5 -91t-88.5 -38q-51 0 -89 36.5t-38 92.5zM367 1542q0 55 37.5 92t89.5 37q51 0 87.5 -37t36.5 -92q0 -53 -37.5 -90t-88.5 -37 q-49 0 -87 37t-38 90zM393 1249q0 43 30 73t71 30t70.5 -30t29.5 -73t-29.5 -71.5t-72.5 -28.5q-39 0 -69 28.5t-30 71.5zM541 1012q0 55 37.5 92t89.5 37q51 0 88 -37t37 -92q0 -53 -38 -90t-89 -37q-49 0 -87 36.5t-38 90.5zM645 1339q0 55 38 92t89 37t88 -37t37 -92 t-37 -92t-90 -37q-51 0 -88 38t-37 91z" />
<glyph unicode="+" d="M170 553v246h303v305h246v-305h303v-246h-303v-305h-246v305h-303z" />
<glyph unicode="," horiz-adv-x="661" d="M-10 -346l198 633q76 115 222 114q140 1 163 -114l-356 -633h-227z" />
<glyph unicode="-" horiz-adv-x="741" d="M86 547v280h569v-280h-569z" />
<glyph unicode="." horiz-adv-x="606" d="M90 195q0 88 62.5 150.5t150.5 62.5t151.5 -62.5t63.5 -150.5t-62.5 -151.5t-152.5 -63.5q-88 0 -150.5 63t-62.5 152z" />
<glyph unicode="/" horiz-adv-x="1210" d="M8 -365l961 2001l233 -114l-962 -2001z" />
<glyph unicode="0" d="M86 705q0 291 104 481q131 244 406 244q274 0 405 -244q105 -190 105 -481t-105 -482q-131 -244 -405 -243q-272 0 -406 243q-104 190 -104 482zM455 709q0 -231 26 -340q33 -133 115 -133t115 133q26 109 26 340q0 233 -26 344q-33 133 -115 133t-115 -133 q-27 -111 -26 -344z" />
<glyph unicode="1" d="M139 1200q188 20 326 88q117 57 151 121h285v-1409h-395v1020q-113 -45 -318 -53z" />
<glyph unicode="2" d="M49 0l471 688q115 168 115 283q0 178 -197 178q-152 0 -254 -53l-90 245q172 88 424 89q281 0 418 -138q104 -106 104 -268q0 -168 -192 -406l-240 -296h436v-322h-995z" />
<glyph unicode="3" d="M51 63l103 263q115 -57 272 -58q219 0 219 170q0 193 -315 189l-2 202q293 27 293 199q0 127 -172 127q-145 0 -265 -53l-90 244q164 84 422 84q233 0 362.5 -96.5t129.5 -262.5q0 -94 -64 -172q-55 -66 -139 -102v-4q260 -103 260 -357q0 -203 -157.5 -329.5 t-413.5 -126.5q-270 0 -443 83z" />
<glyph unicode="4" d="M90 258v223l537 928h383v-946h102v-205h-102v-258h-369v258h-551zM330 463h311v375q0 107 10 213h-4q-16 -47 -98 -207z" />
<glyph unicode="5" d="M68 63l102 265q119 -61 274 -62q102 0 160 46t58 128q0 197 -312 197q-90 0 -207 -19l88 791h779v-322h-506l-23 -231q600 14 600 -420q0 -201 -157.5 -328.5t-413.5 -127.5q-279 0 -442 83z" />
<glyph unicode="6" d="M94 532q0 403 295 666q227 199 471 227l96 -258q-305 -63 -432 -305q53 14 107 15q195 0 319 -91q158 -113 158 -346q0 -211 -137 -335.5t-369 -124.5q-264 0 -397 176q-111 145 -111 376zM451 518q0 -289 155 -289q137 0 137 236q0 221 -198 221q-37 0 -80 -14 q-14 -63 -14 -154z" />
<glyph unicode="7" d="M98 1090v319h1051l-172 -430q-262 -657 -324 -979h-471l496 1090h-580z" />
<glyph unicode="8" d="M86 360q0 121 70 209q59 78 196 160q-227 152 -227 338q0 162 132 262.5t337 100.5q209 0 341 -99.5t132 -261.5q0 -186 -229 -326q268 -169 268 -378q0 -176 -140.5 -280.5t-371.5 -104.5q-225 0 -366.5 100t-141.5 280zM420 371q0 -61 49 -108.5t121 -47.5t117 43 t45 109q0 82 -45 137q-33 39 -119 94q-100 -61 -137 -115q-31 -45 -31 -112zM453 1075q0 -59 30.5 -101t122.5 -106q88 59 120 103.5t32 101.5q0 61 -43 102.5t-111 41.5t-109.5 -40t-41.5 -102z" />
<glyph unicode="9" d="M84 965q0 209 141.5 334.5t372.5 125.5q262 0 393 -174q107 -146 107 -379q0 -403 -295 -663q-227 -201 -471 -229l-96 256q307 70 432 305q-45 -12 -107 -13q-195 0 -319 90q-158 113 -158 347zM442 954q0 -221 201 -221q33 0 80 15q14 75 14 151q0 291 -157 291 q-137 0 -138 -236z" />
<glyph unicode=":" horiz-adv-x="606" d="M90 195q0 88 62.5 150.5t150.5 62.5t151.5 -62.5t63.5 -150.5t-62.5 -151.5t-152.5 -63.5q-88 0 -150.5 63t-62.5 152zM90 846q0 88 62.5 151.5t150.5 63.5q90 0 152.5 -62.5t62.5 -152.5q0 -88 -63.5 -150.5t-151.5 -62.5t-150.5 62.5t-62.5 150.5z" />
<glyph unicode=";" horiz-adv-x="661" d="M-10 -346l198 633q76 117 222 116q140 1 163 -116l-356 -633h-227zM145 846q0 90 62.5 152.5t150.5 62.5q90 0 152.5 -62.5t62.5 -152.5q0 -88 -63.5 -150.5t-151.5 -62.5t-150.5 62.5t-62.5 150.5z" />
<glyph unicode="&#x3c;" d="M170 567v221l852 351v-267l-549 -194l549 -197v-266z" />
<glyph unicode="=" d="M170 324v245h852v-245h-852zM170 782v246h852v-246h-852z" />
<glyph unicode="&#x3e;" d="M170 215v266l549 197l-549 194v267l852 -351v-221z" />
<glyph unicode="?" horiz-adv-x="978" d="M68 1346q158 84 381 84q238 0 372.5 -98.5t134.5 -262.5q0 -135 -106 -233q-82 -76 -199 -113l-22 -197h-295l-35 305q248 51 248 195q0 139 -180 139q-102 0 -201 -51zM268 195q0 88 63.5 150.5t151.5 62.5t150.5 -62.5t62.5 -150.5t-62.5 -151.5t-150.5 -63.5 t-151.5 63t-63.5 152z" />
<glyph unicode="@" horiz-adv-x="1775" d="M86 471q0 391 280.5 677t686.5 286q281 0 453.5 -159t172.5 -425q0 -250 -125 -465q-143 -250 -368 -250q-141 0 -172 160q-131 -156 -293 -156q-137 0 -213 105q-66 90 -66 231q0 201 117 373q133 193 334 192q137 0 225 -135l23 99h172l-96 -431q-31 -137 -31 -192 q0 -96 49 -96q121 0 209 202q78 178 78 357q0 217 -140 346q-133 123 -348 123q-336 0 -569 -262q-221 -252 -221 -582q0 -279 184 -442q176 -156 457 -156q233 0 415 92q139 68 281 209l84 -104q-162 -158 -330 -234q-197 -88 -454 -88q-354 0 -572 191q-223 197 -223 534z M631 475q0 -88 47 -139q41 -47 102 -47q123 0 207 155q70 129 70 258q0 82 -42 136.5t-114 54.5q-123 0 -203 -156q-68 -129 -67 -262z" />
<glyph unicode="A" horiz-adv-x="1284" d="M-6 0l448 1409h400l448 -1409h-416l-63 242h-391l-68 -242h-358zM477 469h283l-105 422q-23 94 -28 170h-4l-33 -170z" />
<glyph unicode="B" horiz-adv-x="1267" d="M121 63v1283q172 84 469 84q287 0 438 -113q137 -102 137 -275q0 -121 -80 -204q-66 -70 -159 -97v-4q106 -33 184 -119q90 -98 90 -225q0 -413 -593 -413h-3q-311 0 -483 83zM506 231q39 -14 92 -14q201 0 201 195q0 115 -51 166q-52 54 -169 54q-12 0 -24 -1l-49 -2 v-398zM506 823l49 -2q13 -1 25 0q103 0 151 45q49 46 49 152q0 188 -186 188q-51 0 -88 -12v-371z" />
<glyph unicode="C" horiz-adv-x="1019" d="M80 705q0 301 137 499q154 225 434 226q207 0 322 -84l-82 -246q-59 39 -150 39q-245 0 -245 -427q0 -177 55 -290q63 -131 188 -131q78 0 146 37l88 -262q-113 -86 -324 -86q-285 0 -436 223q-133 197 -133 502z" />
<glyph unicode="D" horiz-adv-x="1288" d="M121 63v1283q193 84 428 84q348 0 516 -213q143 -184 143 -512q0 -324 -137 -508q-164 -217 -502 -217q-276 0 -448 83zM520 264q29 -8 60 -8q123 0 173 98.5t50 360.5q0 246 -51.5 347t-178.5 101q-29 0 -53 -6v-893z" />
<glyph unicode="E" horiz-adv-x="958" d="M121 0v1409h753v-270h-348v-293h299v-264h-299v-312h348v-270h-753z" />
<glyph unicode="F" horiz-adv-x="946" d="M121 0v1409h751v-270h-346v-293h297v-264h-297v-582h-405z" />
<glyph unicode="G" horiz-adv-x="1271" d="M250 1223q182 207 506 207q238 0 397 -87l-117 -247q-86 47 -229 47q-319 0 -320 -438q0 -444 228 -445q45 0 69 12v334h-131v240h506v-780q-147 -86 -418 -86q-661 0 -661 729q0 319 170 514z" />
<glyph unicode="H" horiz-adv-x="1323" d="M121 0v1409h405v-563h271v563h405v-1409h-405v582h-271v-582h-405z" />
<glyph unicode="I" horiz-adv-x="649" d="M123 0v1409h405v-1409h-405z" />
<glyph unicode="J" horiz-adv-x="649" d="M-70 -172q86 8 139.5 70.5t53.5 169.5v1341h405v-1296q0 -270 -168 -418q-158 -139 -430 -146v279z" />
<glyph unicode="K" horiz-adv-x="1284" d="M123 0v1409h403v-627h4l306 627h409l-356 -645l385 -764h-451l-293 682h-4v-682h-403z" />
<glyph unicode="L" horiz-adv-x="911" d="M123 0v1409h405v-1139h324v-270h-729z" />
<glyph unicode="M" horiz-adv-x="1652" d="M66 0l139 1409h387l186 -672q23 -78 37 -157h4q8 37 41 155l201 674h385l141 -1409h-383q-4 66 -51 688q-5 62 -5 130q0 23 1 46h-4q-8 -43 -43 -176l-209 -688h-186q-27 74 -209 688q-27 88 -45 176h-2v-39q0 -68 -5 -137l-49 -688h-331z" />
<glyph unicode="N" horiz-adv-x="1345" d="M121 0v1409h342l358 -590q37 -61 68 -129h4q-8 72 -8 135v584h340v-1409h-301l-404 674q-37 61 -65 133h-4q8 -76 8 -143v-664h-338z" />
<glyph unicode="O" horiz-adv-x="1302" d="M80 705q0 319 133 509q152 215 440 216q289 0 437 -216q133 -190 133 -509q0 -322 -133 -512q-147 -213 -437 -213q-289 0 -440 213q-133 190 -133 512zM494 719q0 -444 159 -445q158 1 158 445q0 446 -158 446q-159 0 -159 -440v-6z" />
<glyph unicode="P" horiz-adv-x="1222" d="M121 0v1346q184 84 465 84q299 0 446 -136q129 -120 129 -327q0 -219 -143 -344t-404 -125q-30 0 -61 2l-37 2v-502h-395zM516 733l37 -2q12 -1 23 -1q105 0 150 50q50 56 50 189q0 125 -41 180t-147 55q-29 0 -72 -12v-459z" />
<glyph unicode="Q" horiz-adv-x="1302" d="M80 705q0 319 133 509q152 215 440 216q289 0 437 -216q133 -190 133 -509q0 -432 -236 -619l209 -252l-291 -258l-170 412q-43 -6 -82 -6q-289 0 -440 213q-133 190 -133 510zM494 721q0 -444 159 -445q158 1 158 445t-158 444q-159 0 -159 -439v-5z" />
<glyph unicode="R" horiz-adv-x="1259" d="M123 0v1346q190 84 459 84q299 0 452 -123q143 -117 144 -328q0 -117 -82 -215t-195 -129v-4l334 -631h-440l-271 604h-4v-604h-397zM520 709q16 -4 47 -4h2q213 0 213 253q0 129 -39 183q-45 59 -157 59q-39 0 -66 -10v-481z" />
<glyph unicode="S" horiz-adv-x="1009" d="M51 66l90 282q87 -65 213 -65h4q150 0 150 120q0 94 -170 177q-272 131 -272 395q0 193 130 324t341 131q221 0 350 -84l-82 -246q-102 59 -205 59q-139 0 -139 -121q0 -57 39 -95t131 -83q184 -88 254 -205q53 -86 53 -221q0 -195 -140.5 -324.5t-357.5 -129.5 q-262 0 -389 86z" />
<glyph unicode="T" horiz-adv-x="991" d="M66 1139v270h860v-270h-228v-1139h-405v1139h-227z" />
<glyph unicode="U" horiz-adv-x="1271" d="M121 422v987h405v-983q0 -143 125 -143q123 0 123 145v981h377v-985q0 -207 -150 -330q-141 -117 -364 -117t-367 117q-150 121 -149 328z" />
<glyph unicode="V" horiz-adv-x="1204" d="M-4 1409h428l166 -733q14 -68 28 -164h3q4 47 26 164l174 733h387l-428 -1409h-352z" />
<glyph unicode="W" horiz-adv-x="1744" d="M29 1409h395l119 -727q12 -72 18 -158h2q4 41 27 158l155 727h285l154 -725q16 -74 22 -160h4q2 39 19 160l123 725h366l-309 -1409h-356l-156 621q-16 68 -25 143h-4q-8 -61 -22 -143l-148 -621h-360z" />
<glyph unicode="X" horiz-adv-x="1181" d="M-4 0l373 715l-338 694h430l137 -369h2l166 369h387l-350 -645l381 -764h-449l-157 395h-5l-163 -395h-414z" />
<glyph unicode="Y" horiz-adv-x="1118" d="M-12 1409h422l163 -479h5l172 479h383l-375 -834v-575h-404v575z" />
<glyph unicode="Z" horiz-adv-x="1005" d="M29 0l401 1139h-348v270h846l-379 -1139h385v-270h-905z" />
<glyph unicode="[" horiz-adv-x="772" d="M117 -440v2048h592v-217h-252v-1612h252v-219h-592z" />
<glyph unicode="\" horiz-adv-x="1212" d="M8 1522l234 114l962 -2001l-233 -114z" />
<glyph unicode="]" horiz-adv-x="772" d="M63 -221h254v1612h-254v217h592v-2048h-592v219z" />
<glyph unicode="^" horiz-adv-x="1290" d="M152 901l340 453q55 74 155 73q96 0 152 -73l340 -453l-156 -151l-336 370l-338 -370z" />
<glyph unicode="_" d="M-20 -244h1232v-233h-1232v233z" />
<glyph unicode="`" horiz-adv-x="561" d="M-8 1503q27 59 155 60q117 0 197 -47l137 -302h-211z" />
<glyph unicode="a" horiz-adv-x="1146" d="M59 338q0 195 187 291q143 76 430 102v43q0 113 -170 113q-147 0 -299 -68l-80 219q207 86 455 86q457 0 456 -426v-635q-160 -83 -458 -83h-7q-514 0 -514 358zM422 354q0 -161 168 -161h2q55 0 84 14v350q-127 -10 -182 -49q-72 -47 -72 -154z" />
<glyph unicode="b" horiz-adv-x="1212" d="M109 63v1545h389v-525q84 35 196 35q199 0 323 -144t124 -384q0 -299 -155 -454.5t-443 -155.5q-295 0 -434 83zM498 221q27 -10 69 -10q191 0 191 352q0 168 -33 242q-39 92 -145 92q-51 0 -82 -14v-662z" />
<glyph unicode="c" horiz-adv-x="870" d="M72 557q0 270 141 426q129 141 326 141q190 0 282 -82l-76 -213q-45 39 -114 39q-166 0 -166 -309q0 -307 166 -307q68 0 114 41l80 -232q-89 -81 -277 -81h-5q-209 0 -336 147q-135 156 -135 430z" />
<glyph unicode="d" horiz-adv-x="1212" d="M208 961.5q136 154.5 351 154.5q102 0 156 -16v508h389v-1545q-172 -83 -454 -83h-7q-264 0 -414 141q-157 146 -157 426q0 260 136 414.5zM647 223q48 0 68 10v662q-33 8 -62 8q-196 0 -196 -337q0 -343 190 -343z" />
<glyph unicode="e" horiz-adv-x="1159" d="M72 555q0 258 133 410q138 159 388 159h3q254 0 383 -166q108 -142 108 -383q0 -32 -2 -65l-643 -90q37 -178 230 -178q176 0 295 59l86 -238q-170 -83 -424 -83h-6q-262 0 -410 163q-141 154 -141 412zM414 604l313 47q0 250 -147 250q-168 0 -168 -246q0 -25 2 -51z " />
<glyph unicode="f" horiz-adv-x="768" d="M59 850v254h117v90q0 201 119 310.5t321 109.5q51 0 107 -8v-246h-20q-69 0 -101 -24q-37 -29 -37 -113v-119h158v-254h-158v-850h-389v850h-117z" />
<glyph unicode="g" horiz-adv-x="1202" d="M72 520q0 287 151.5 445.5t446.5 158.5q287 0 424 -84v-1042q0 -238 -146 -356q-133 -109 -366 -109q-289 0 -447 86l94 250q125 -66 283 -66q205 0 205 166v54q-57 -27 -180 -27q-203 0 -334 142.5t-131 381.5zM457 547q0 -176 43 -254t141 -78q41 0 76 14v660 q-27 12 -72 12q-100 0 -144 -84t-44 -270z" />
<glyph unicode="h" horiz-adv-x="1224" d="M109 0v1608h389v-531q106 43 229 43q197 0 297 -102q92 -92 92 -250v-768h-389v760q0 127 -135 127q-53 0 -94 -21v-866h-389z" />
<glyph unicode="i" horiz-adv-x="612" d="M104 1423q0 72 58.5 123t142.5 51t143.5 -51t59.5 -123t-59.5 -124t-143.5 -52q-82 0 -141.5 52.5t-59.5 123.5zM111 0v1104h389v-1104h-389z" />
<glyph unicode="j" horiz-adv-x="612" d="M-59 -207q94 29 131 88q41 68 41 219v1004h389v-950q0 -283 -153.5 -449t-407.5 -170v258zM106 1423q0 72 58.5 123t142.5 51t142.5 -51t58.5 -125q0 -72 -58.5 -123t-140.5 -51q-84 0 -143.5 52.5t-59.5 123.5z" />
<glyph unicode="k" d="M113 0v1608h389v-979h2l268 475h385l-309 -486l356 -618h-434l-264 551h-4v-551h-389z" />
<glyph unicode="l" horiz-adv-x="612" d="M113 0v1608h389v-1608h-389z" />
<glyph unicode="m" horiz-adv-x="1845" d="M109 0v1040q195 84 479 84q236 0 354 -98q135 98 377 98q195 0 306.5 -99t111.5 -261v-764h-389v766q0 117 -134 117q-57 0 -98 -29v-854h-389v766q0 117 -135 117q-57 0 -94 -15v-868h-389z" />
<glyph unicode="n" horiz-adv-x="1224" d="M109 0v1040q188 84 491 84q516 0 516 -360v-764h-389v760q0 125 -131 125q-55 0 -98 -15v-870h-389z" />
<glyph unicode="o" horiz-adv-x="1173" d="M72 553q0 254 137 412.5t377 158.5q244 0 383 -161q133 -156 133 -410q0 -256 -135 -412q-138 -161 -378 -161h-3q-242 0 -381 161q-133 156 -133 412zM457 559q0 -317 129 -317t129 317q0 324 -129 324t-129 -324z" />
<glyph unicode="p" horiz-adv-x="1212" d="M109 -440v1480q178 84 458 84q266 0 416 -139q158 -147 158 -430q0 -258 -136.5 -413.5t-351.5 -155.5q-98 0 -155 16v-442h-389zM498 223q25 -10 61 -10q197 0 197 340q0 178 -43 261t-148 83q-37 0 -67 -10v-664z" />
<glyph unicode="q" horiz-adv-x="1212" d="M72 514q0 276 135 432q152 178 463 178q285 0 434 -84v-1480h-387v458q-84 -34 -183 -34h-6q-201 0 -325 143q-131 147 -131 387zM457 547q0 -330 178 -330q47 0 82 14v658q-27 12 -72 12q-188 0 -188 -354z" />
<glyph unicode="r" horiz-adv-x="772" d="M109 0v1040q170 84 495 84q74 0 154 -4l-68 -270q-61 31 -123 31q-37 0 -69 -13v-868h-389z" />
<glyph unicode="s" horiz-adv-x="897" d="M43 63l98 246q78 -63 189 -63q102 0 102 86q0 78 -121 127q-241 100 -241 305q0 156 108.5 258t280.5 102q201 0 346 -84l-92 -217q-74 55 -162 56q-98 0 -98 -86q0 -76 120 -129q147 -66 209 -148q49 -70 49 -174q0 -160 -118.5 -260t-323.5 -100q-217 0 -346 81z" />
<glyph unicode="t" horiz-adv-x="790" d="M59 850v254h115v225l389 98v-323h160v-254h-160v-496q0 -112 84 -112h2q33 0 74 16v-240q-66 -38 -180 -38h-6q-178 0 -275 100q-88 90 -88 242v528h-115z" />
<glyph unicode="u" horiz-adv-x="1212" d="M109 375v729h389v-758q0 -106 116 -106q61 0 101 18v846h389v-1038q-178 -86 -496 -86q-254 0 -372 90q-127 94 -127 305z" />
<glyph unicode="v" horiz-adv-x="1103" d="M12 1104h414l117 -557q20 -94 24 -185h4q4 45 29 185l127 557h365l-347 -1104h-383z" />
<glyph unicode="w" horiz-adv-x="1679" d="M29 1104h385l102 -559q16 -92 19 -174h4q6 55 28 174l138 559h317l129 -559q18 -80 27 -174h4q0 45 18 174l113 559h338l-295 -1104h-365l-125 502q-18 72 -22 164h-4q-2 -43 -23 -164l-129 -502h-362z" />
<glyph unicode="x" horiz-adv-x="1112" d="M-2 0l346 569l-311 535h405l133 -277h4l146 277h362l-321 -510l352 -594h-430l-141 305h-4l-148 -305h-393z" />
<glyph unicode="y" horiz-adv-x="1103" d="M12 1104h412l113 -561q18 -96 20 -191h4q8 68 31 191l135 561h365l-492 -1544h-407l174 440z" />
<glyph unicode="z" horiz-adv-x="921" d="M47 0l330 850h-291v254h768l-307 -850h311v-254h-811z" />
<glyph unicode="{" horiz-adv-x="864" d="M57 588v196q190 0 191 160v275q0 389 534 389v-189q-113 0 -158.5 -41t-45.5 -135v-313q0 -209 -207 -244q2 -2 0 -4q207 -35 207 -254v-313q0 -94 46 -135t158 -41v-191q-535 0 -534 391v277q0 168 -191 172z" />
<glyph unicode="|" horiz-adv-x="532" d="M117 -440v2048h299v-2048h-299z" />
<glyph unicode="}" horiz-adv-x="864" d="M82 -61q111 0 157 40.5t46 135.5v313q0 217 209 254q-2 4 0 4q-209 37 -209 244v313q0 94 -46 135t-157 41v189q535 0 534 -389v-275q0 -160 191 -160v-196q-190 -4 -191 -172v-277q0 -391 -534 -391v191z" />
<glyph unicode="~" horiz-adv-x="1290" d="M141 772q80 166 252 182q94 8 233.5 -61.5t211.5 -63.5q152 14 209 150l102 -248q-55 -152 -254 -170q-92 -8 -233.5 61.5t-217.5 63.5q-145 -14 -200 -160z" />
<glyph unicode="&#xa1;" horiz-adv-x="720" d="M145 -440l84 880h297l84 -880h-465zM164 774q0 88 62.5 151.5t150.5 63.5q90 0 152.5 -62.5t62.5 -152.5q0 -88 -63.5 -150.5t-151.5 -62.5t-150.5 62.5t-62.5 150.5z" />
<glyph unicode="&#xa2;" d="M168 717q0 195 98 323q90 119 244 154l-25 215h222l-23 -205q137 -12 209 -67l-74 -187q-47 31 -108 31q-170 0 -170 -262t170 -262q66 0 110 32l76 -204q-72 -57 -217 -66l25 -219h-226l29 229q-158 35 -246 156q-94 129 -94 332z" />
<glyph unicode="&#xa3;" d="M113 0q231 254 231 487q0 78 -20 142h-201v223h139q-27 98 -26 199q0 154 106 256q125 121 350 120q246 0 385 -79l-80 -236q-86 45 -200 45q-195 0 -195 -203q0 -51 14 -102h279v-223h-246q8 -47 8 -113q0 -111 -55 -194h488v-322h-977z" />
<glyph unicode="&#xa4;" d="M92 324l139 137q-76 113 -75 246q0 131 75 243l-139 137l121 121l139 -137q109 74 244 74q137 0 246 -74l137 137l121 -121l-137 -137q74 -109 73 -243q0 -137 -73 -246l137 -137l-121 -123l-139 139q-109 -74 -244 -74t-244 74l-139 -139zM393 707q0 -84 59.5 -144.5 t143.5 -60.5t144.5 60.5t60.5 144.5t-60.5 143t-144.5 59t-143.5 -59t-59.5 -143z" />
<glyph unicode="&#xa5;" d="M41 1409h395l172 -494h4l187 494h352l-240 -514l191 14v-155l-246 14l-70 -147l316 12v-154l-322 15v-494h-368v494l-324 -15v154l318 -12l-70 147l-248 -14v155l193 -14z" />
<glyph unicode="&#xa6;" horiz-adv-x="532" d="M117 381h299v-821h-299v821zM117 784v824h299v-824h-299z" />
<glyph unicode="&#xa7;" d="M123 551q0 201 213 338q-92 98 -92 221q0 131 102.5 222t276.5 91q207 0 338 -82l-80 -202q-76 53 -176 53q-113 0 -113 -92q0 -66 86 -137l219 -183q174 -145 174 -325q0 -188 -223 -332q113 -113 113 -260q0 -133 -111 -225.5t-291 -92.5q-217 0 -350 88l82 226 q90 -63 194 -64q121 0 121 86q0 61 -69 121l-232 195q-100 86 -141 163.5t-41 190.5zM395 606q0 -96 82 -164l203 -168q92 66 92 146q0 90 -82 160l-205 172q-90 -57 -90 -146z" />
<glyph unicode="&#xa8;" horiz-adv-x="561" d="M-98 1360q0 59 48 100t116 41t115.5 -41t47.5 -100q0 -61 -48 -102t-115 -41q-68 0 -116 40.5t-48 102.5zM330 1360q0 59 48 100t116 41t116.5 -41t48.5 -100q0 -61 -49 -102t-116 -41q-68 0 -116 40.5t-48 102.5z" />
<glyph unicode="&#xa9;" horiz-adv-x="1619" d="M82 705q0 301 214 514t515 213t514 -213t213 -514q0 -303 -213 -515.5t-514 -212.5t-515 212t-214 516zM227 705q0 -242 170 -414t414 -172t413 172t169 414t-169 413.5t-413 171.5t-414 -172t-170 -413zM389 709q0 176 126 301t302 125q188 0 322 -150l-119 -98 q-90 94 -203 94q-111 0 -190.5 -80t-79.5 -192q0 -113 80 -194t190 -81q111 0 203 98l125 -98q-145 -152 -328 -151q-176 0 -302 124.5t-126 301.5z" />
<glyph unicode="&#xaa;" horiz-adv-x="802" d="M68 913q0 131 120 195q92 47 281 63v23q0 72 -107 72q-86 0 -194 -43l-55 145q141 55 301 55q301 0 301 -276v-412q-102 -53 -307 -53q-340 0 -340 231zM305 922q0 -98 109 -99q39 0 55 8v220q-164 -18 -164 -129z" />
<glyph unicode="&#xab;" horiz-adv-x="1155" d="M61 684l301 504l213 -119l-229 -385l229 -383l-213 -121zM541 684l303 504l213 -121l-232 -383l232 -383l-213 -121z" />
<glyph unicode="&#xac;" d="M170 555v246h852v-543h-252v297h-600z" />
<glyph unicode="&#xad;" horiz-adv-x="741" d="M86 547v280h569v-280h-569z" />
<glyph unicode="&#xae;" horiz-adv-x="1619" d="M82 705q0 301 214 514t515 213t514 -213t213 -514q0 -303 -213 -515.5t-514 -212.5t-515 212t-214 516zM227 705q0 -242 170 -414t414 -172t413 172t169 414t-169 414.5t-413 172.5t-414 -173t-170 -414zM553 307v787q98 49 221 49q152 0 236 -78q74 -68 73 -168 q0 -182 -196 -235l250 -355h-197l-219 340h-12v-340h-156zM709 752h39q176 0 176 143q0 121 -158 121q-29 0 -57 -8v-256z" />
<glyph unicode="&#xaf;" horiz-adv-x="561" d="M-74 1274v196h709v-196h-709z" />
<glyph unicode="&#xb0;" horiz-adv-x="845" d="M92 1106q0 137 96.5 233.5t233.5 96.5t234.5 -96.5t97.5 -233.5t-97.5 -233.5t-234.5 -96.5t-233.5 96.5t-96.5 233.5zM268 1106q0 -63 45 -108.5t109 -45.5q66 0 111 45.5t45 108.5t-46.5 108.5t-109.5 45.5t-108.5 -45.5t-45.5 -108.5z" />
<glyph unicode="&#xb1;" d="M170 133v223h852v-223h-852zM170 739v222h303v282h246v-282h303v-222h-303v-282h-246v282h-303z" />
<glyph unicode="&#xb2;" horiz-adv-x="802" d="M55 526l301 437q70 100 70 163q0 98 -125 99q-72 0 -145 -31l-64 172q115 55 273 55q182 0 266 -86q66 -68 65 -174q0 -104 -121 -254l-133 -164h269v-217h-656z" />
<glyph unicode="&#xb3;" horiz-adv-x="802" d="M68 571l69 183q74 -37 172 -37q123 0 123 88q0 106 -192 106v144q180 20 180 106q0 76 -113 76q-80 0 -147 -33l-64 164q115 57 271 57q147 0 230 -62.5t83 -168.5q0 -109 -113 -168q148 -67 148 -219q0 -131 -101.5 -212t-261.5 -81q-170 0 -284 57z" />
<glyph unicode="&#xb4;" horiz-adv-x="561" d="M80 1214l137 302q80 47 197 47q128 -1 155 -60l-278 -289h-211z" />
<glyph unicode="&#xb5;" horiz-adv-x="1224" d="M109 -440v1544h389v-868q49 -23 110 -23q78 0 119 20v871h389v-1038q-160 -84 -381 -84q-133 0 -237 43v-465h-389z" />
<glyph unicode="&#xb6;" d="M41 981q0 217 156 328q139 100 378 100h539v-166h-72v-1683h-227v1683h-182v-1683h-227v1020q-166 29 -265.5 135t-99.5 266z" />
<glyph unicode="&#xb7;" horiz-adv-x="616" d="M94 705q0 88 62.5 150.5t150.5 62.5q90 0 152.5 -62.5t62.5 -150.5t-62.5 -152t-152.5 -64q-88 0 -150.5 63.5t-62.5 152.5z" />
<glyph unicode="&#xb8;" horiz-adv-x="561" d="M-18 -428l63 113q51 -4 98 -4q199 0 199 63q0 47 -127 47q-45 0 -111 -4l60 102q74 6 133 7q283 -1 283 -148q0 -186 -412 -186q-86 0 -186 10z" />
<glyph unicode="&#xb9;" horiz-adv-x="802" d="M115 1280q231 25 297 129h192v-885h-266v623q-82 -18 -191 -25z" />
<glyph unicode="&#xba;" horiz-adv-x="802" d="M57 1055q0 164 92.5 267t251.5 103q160 0 252 -103t92 -267q0 -166 -90 -267q-94 -106 -254 -106t-254 106q-90 100 -90 267zM313 1059q0 -203 88 -203q86 0 86 203q0 207 -86 207q-88 0 -88 -207z" />
<glyph unicode="&#xbb;" horiz-adv-x="1155" d="M98 301l232 383l-232 383l213 121l301 -504l-301 -504zM578 301l231 383l-231 385l213 119l303 -504l-303 -504z" />
<glyph unicode="&#xbc;" horiz-adv-x="1792" d="M55 1280q236 25 301 129h193v-885h-266v623q-80 -18 -195 -25zM481 16l615 1461l202 -82l-616 -1461zM1040 158v153l332 574h256v-582h64v-145h-64v-158h-252v158h-336zM1188 303h186v197q0 65 4 143h-4q-16 -37 -71 -139z" />
<glyph unicode="&#xbd;" horiz-adv-x="1792" d="M55 1280q236 25 301 129h193v-885h-266v623q-80 -18 -195 -25zM449 16l614 1461l203 -82l-617 -1461zM1036 0l301 434q70 100 70 166q0 100 -125 100q-53 0 -123 -30l-63 172q119 55 250 55q180 0 266 -88q66 -70 65 -174q0 -109 -121 -256l-133 -162h269v-217h-656z" />
<glyph unicode="&#xbe;" horiz-adv-x="1792" d="M66 571l69 183q74 -37 174 -37q121 0 121 88q0 106 -190 106v144q178 20 178 106q0 76 -113 76q-80 0 -147 -33l-64 164q115 57 271 57q147 0 230 -62.5t83 -168.5q0 -109 -113 -168q148 -65 148 -219q0 -131 -100.5 -212t-262.5 -81q-170 0 -284 57zM541 16l616 1461 l201 -82l-615 -1461zM1051 158v153l331 574h256v-582h64v-145h-64v-158h-252v158h-335zM1196 303h188v197q1 65 5 143h-5q-16 -37 -71 -139z" />
<glyph unicode="&#xbf;" horiz-adv-x="978" d="M68 -96q0 133 106 231q82 76 199 113l22 196h295l35 -305q-248 -51 -248 -192q0 -139 180 -140q96 0 201 50l98 -232q-160 -82 -381 -82q-238 0 -372.5 97.5t-134.5 263.5zM328 778q0 88 62.5 150.5t150.5 62.5t151.5 -62.5t63.5 -150.5t-62.5 -151.5t-152.5 -63.5 q-88 0 -150.5 63.5t-62.5 151.5z" />
<glyph unicode="&#xc0;" horiz-adv-x="1284" d="M-6 0l448 1409h400l448 -1409h-416l-63 242h-391l-68 -242h-358zM272 1804q25 57 152 58q119 0 201 -47l137 -302h-211zM477 469h283l-105 422q-23 94 -28 170h-4l-33 -170z" />
<glyph unicode="&#xc1;" horiz-adv-x="1284" d="M-6 0l448 1409h400l448 -1409h-416l-63 242h-391l-68 -242h-358zM477 469h283l-105 422q-23 94 -28 170h-4l-33 -170zM508 1513l137 302q84 47 201 47q126 -1 151 -58l-278 -291h-211z" />
<glyph unicode="&#xc2;" horiz-adv-x="1284" d="M-6 0l448 1409h400l448 -1409h-416l-63 242h-391l-68 -242h-358zM317 1583l222 223q41 41 102 41q59 0 100 -41l222 -223l-105 -94l-217 151l-219 -151zM477 469h283l-105 422q-23 94 -28 170h-4l-33 -170z" />
<glyph unicode="&#xc3;" horiz-adv-x="1284" d="M-6 0l448 1409h400l448 -1409h-416l-63 242h-391l-68 -242h-358zM291 1667q53 111 174 123q66 6 159 -41t142 -43q100 8 141 102l72 -172q-37 -102 -172 -114q-66 -6 -162 40t-145 42q-96 -8 -138 -107zM477 469h283l-105 422q-23 94 -28 170h-4l-33 -170z" />
<glyph unicode="&#xc4;" horiz-adv-x="1284" d="M-6 0l448 1409h400l448 -1409h-416l-63 242h-391l-68 -242h-358zM262 1651q0 61 48 102t116 41t117 -41t49 -102q0 -59 -49 -100.5t-117 -41.5t-116 41t-48 101zM477 469h283l-105 422q-23 94 -28 170h-4l-33 -170zM692 1651q0 61 48 102t116 41t117 -41t49 -102 q0 -59 -49 -100.5t-117 -41.5t-116 41t-48 101z" />
<glyph unicode="&#xc5;" horiz-adv-x="1284" d="M-6 0l448 1409h400l448 -1409h-416l-63 242h-391l-68 -242h-358zM453 1688q0 78 55 133t133 55t133 -55t55 -133t-55 -133.5t-133 -55.5t-133 55.5t-55 133.5zM477 469h283l-105 422q-23 94 -28 170h-4l-33 -170zM563 1688q0 -33 22.5 -55.5t55.5 -22.5t55.5 22.5 t22.5 55.5t-22.5 56t-55.5 23t-55.5 -23.5t-22.5 -55.5z" />
<glyph unicode="&#xc6;" horiz-adv-x="1564" d="M-37 0l594 1409h805v-270h-369l66 -293h303v-264h-248l72 -312h321v-270h-659l-39 242h-391l-92 -242h-363zM508 477h276l-65 426q-10 66 -10 141h-4q-6 -37 -39 -143z" />
<glyph unicode="&#xc7;" horiz-adv-x="1019" d="M80 705q0 301 137 499q154 225 434 226q207 0 322 -84l-82 -246q-59 39 -150 39q-246 0 -245 -430q0 -174 55 -287q63 -131 188 -131q78 0 146 37l88 -262q-113 -86 -324 -86q-285 0 -436 223q-133 197 -133 502zM264 -428l64 113q51 -4 98 -4q199 0 199 63q0 47 -127 47 q-45 0 -111 -4l59 102q74 6 136 7q280 -1 280 -148q0 -186 -411 -186q-86 0 -187 10z" />
<glyph unicode="&#xc8;" horiz-adv-x="954" d="M121 0v1409h753v-270h-348v-293h299v-264h-299v-312h348v-270h-753zM170 1804q25 57 149 58q119 0 201 -47l139 -302h-210z" />
<glyph unicode="&#xc9;" horiz-adv-x="954" d="M121 0v1409h753v-270h-348v-293h299v-264h-299v-312h348v-270h-753zM336 1513l137 302q82 47 201 47q126 -1 151 -58l-278 -291h-211z" />
<glyph unicode="&#xca;" horiz-adv-x="954" d="M121 0v1409h753v-270h-348v-293h299v-264h-299v-312h348v-270h-753zM158 1583l221 223q41 41 102 41t103 -41l221 -223l-105 -94l-219 151l-219 -151z" />
<glyph unicode="&#xcb;" horiz-adv-x="954" d="M117 1651q0 61 48 102t116 41t115.5 -41t47.5 -102q0 -59 -48 -100.5t-115 -41.5q-68 0 -116 41t-48 101zM123 0v1409h754v-270h-349v-293h299v-264h-299v-312h349v-270h-754zM545 1651q0 61 48 102t116 41t116.5 -41t48.5 -102q0 -59 -49 -100.5t-116 -41.5 q-68 0 -116 41t-48 101z" />
<glyph unicode="&#xcc;" horiz-adv-x="649" d="M0 1804q25 57 152 58q119 0 200 -47l137 -302h-210zM121 0v1409h405v-1409h-405z" />
<glyph unicode="&#xcd;" horiz-adv-x="649" d="M123 0v1409h405v-1409h-405zM160 1513l139 302q82 47 201 47q124 -1 149 -58l-278 -291h-211z" />
<glyph unicode="&#xce;" horiz-adv-x="649" d="M4 1583l219 223q41 41 103 41q59 0 100 -41l221 -223l-104 -96l-217 153l-220 -153zM123 0v1409h405v-1409h-405z" />
<glyph unicode="&#xcf;" horiz-adv-x="649" d="M-55 1651q0 61 48 102t116 41t116.5 -41t48.5 -102q0 -59 -49 -100.5t-116 -41.5q-68 0 -116 41t-48 101zM121 0v1409h405v-1409h-405zM377 1651q0 61 47 102t115 41t117 -41t49 -102q0 -59 -49.5 -100.5t-116.5 -41.5q-68 0 -115 41t-47 101z" />
<glyph unicode="&#xd0;" horiz-adv-x="1331" d="M59 627v239h93v480q193 84 432 84q350 0 520 -213q147 -184 147 -510q0 -324 -143 -510q-166 -217 -506 -217q-289 0 -450 83v564h-93zM543 260q33 -8 65 -8q127 0 184.5 101.5t57.5 361.5q0 246 -57.5 350t-190.5 104q-23 0 -59 -8v-295h127v-239h-127v-367z" />
<glyph unicode="&#xd1;" horiz-adv-x="1345" d="M121 0v1409h342l358 -590q37 -61 68 -129h4q-8 72 -8 135v584h340v-1409h-301l-404 674q-37 61 -65 133h-4q8 -76 8 -143v-664h-338zM319 1667q53 111 175 123q66 6 158.5 -41t142.5 -43q98 8 139 102l74 -172q-37 -102 -172 -114q-66 -6 -162 40t-146 42 q-96 -8 -137 -107z" />
<glyph unicode="&#xd2;" horiz-adv-x="1302" d="M80 705q0 319 133 509q152 215 440 216q289 0 437 -216q133 -190 133 -509q0 -322 -133 -512q-147 -213 -437 -213q-289 0 -440 213q-133 190 -133 512zM326 1804q25 57 151 58q119 0 201 -47l137 -302h-211zM494 719q0 -444 159 -445q158 1 158 445q0 446 -158 446 q-160 0 -159 -446z" />
<glyph unicode="&#xd3;" horiz-adv-x="1302" d="M80 705q0 319 133 509q152 215 440 216q289 0 437 -216q133 -190 133 -509q0 -322 -133 -512q-147 -213 -437 -213q-289 0 -440 213q-133 190 -133 512zM485 1513l138 302q82 47 200 47q127 -1 152 -58l-279 -291h-211zM494 719q0 -444 159 -445q158 1 158 445 q0 446 -158 446q-160 0 -159 -446z" />
<glyph unicode="&#xd4;" horiz-adv-x="1302" d="M80 705q0 319 133 509q152 215 440 216q289 0 437 -216q133 -190 133 -509q0 -322 -133 -512q-147 -213 -437 -213q-289 0 -440 213q-133 190 -133 512zM330 1583l221 223q41 41 102 41t103 -41l221 -223l-105 -94l-219 151l-219 -151zM494 719q0 -444 159 -445 q158 1 158 445q0 446 -158 446q-160 0 -159 -446z" />
<glyph unicode="&#xd5;" horiz-adv-x="1302" d="M80 705q0 319 133 509q152 215 440 216q289 0 437 -216q133 -190 133 -509q0 -322 -133 -512q-147 -213 -437 -213q-289 0 -440 213q-133 190 -133 512zM309 1667q53 111 174 123q66 6 159 -41t142 -43q100 8 142 102l73 -172q-41 -102 -174 -114q-66 -6 -162 40t-145 42 q-92 -8 -137 -107zM494 719q0 -444 159 -445q158 1 158 445q0 446 -158 446q-160 0 -159 -446z" />
<glyph unicode="&#xd6;" horiz-adv-x="1302" d="M80 705q0 319 133 509q152 215 440 216q289 0 437 -216q133 -190 133 -509q0 -322 -133 -512q-147 -213 -437 -213q-289 0 -440 213q-133 190 -133 512zM272 1651q0 61 48.5 102t115.5 41q68 0 117 -41t49 -102q0 -59 -49 -100.5t-117 -41.5t-116 41t-48 101zM494 719 q0 -444 159 -445q158 1 158 445q0 446 -158 446q-160 0 -159 -446zM702 1651q0 61 48.5 102t115.5 41q68 0 117 -41t49 -102q0 -59 -49 -100.5t-117 -41.5t-116 41t-48 101z" />
<glyph unicode="&#xd7;" d="M160 395l272 281l-272 282l164 164l272 -280l270 280l166 -164l-272 -282l272 -283l-164 -164l-272 281l-272 -279z" />
<glyph unicode="&#xd8;" horiz-adv-x="1304" d="M82 705q0 319 133 509q150 215 438 216q188 0 318 -97l108 172l105 -65l-121 -189q160 -192 160 -546q0 -322 -131 -512q-150 -213 -439 -213q-199 0 -331 106l-119 -184l-103 65l131 205q-150 190 -149 533zM467 719q0 -98 14 -154l316 496q-43 131 -144 131 q-186 0 -186 -473zM508 379q47 -131 145 -131q187 0 187 471q0 94 -17 158z" />
<glyph unicode="&#xd9;" horiz-adv-x="1271" d="M121 422v987h405v-983q0 -143 125 -143q123 0 123 145v981h377v-985q0 -207 -150 -330q-141 -117 -364 -117t-367 117q-150 121 -149 328zM334 1804q25 57 149 58q119 0 201 -47l139 -302h-211z" />
<glyph unicode="&#xda;" horiz-adv-x="1271" d="M121 422v987h405v-983q0 -143 125 -143q123 0 123 145v981h377v-985q0 -207 -150 -330q-141 -117 -364 -117t-367 117q-150 121 -149 328zM481 1513l137 302q82 47 201 47q127 -1 152 -58l-279 -291h-211z" />
<glyph unicode="&#xdb;" horiz-adv-x="1271" d="M121 422v987h405v-983q0 -143 125 -143q123 0 123 145v981h377v-985q0 -207 -150 -330q-141 -117 -364 -117t-367 117q-150 121 -149 328zM328 1583l221 223q41 41 100 41q61 0 103 -41l221 -223l-105 -94l-217 151l-219 -151z" />
<glyph unicode="&#xdc;" horiz-adv-x="1271" d="M121 422v987h405v-983q0 -143 125 -143q123 0 123 145v981h377v-985q0 -207 -150 -330q-141 -117 -364 -117t-367 117q-150 121 -149 328zM272 1651q0 61 47.5 102t114.5 41q68 0 117 -41t49 -102q0 -59 -49 -100.5t-117 -41.5t-115 41t-47 101zM702 1651q0 61 47.5 102 t114.5 41q68 0 117 -41t49 -102q0 -59 -49 -100.5t-117 -41.5t-115 41t-47 101z" />
<glyph unicode="&#xdd;" horiz-adv-x="1118" d="M-12 1409h428l164 -479h4l174 479h375l-375 -834v-575h-404v575zM436 1513l137 302q84 47 201 47q127 -1 152 -58l-279 -291h-211z" />
<glyph unicode="&#xde;" horiz-adv-x="1224" d="M121 0v1409h395v-219q53 8 90 8q553 0 553 -461q0 -219 -139 -340q-158 -139 -465 -123l-39 2v-276h-395zM516 514h27q127 0 179 55t52 168q0 233 -194 234q-33 0 -64 -6v-451z" />
<glyph unicode="&#xdf;" horiz-adv-x="1286" d="M111 0v1010q0 281 135 444q139 172 393 172q231 0 375 -153q135 -145 135 -363q0 -96 -23 -178q-152 -31 -151 -144q0 -72 100 -151q148 -119 148 -287q0 -174 -121 -274q-109 -92 -277 -92q-172 0 -245 67l59 250q51 -37 104 -37q41 0 69 26.5t28 69.5q0 74 -90 140 q-135 98 -136 258q0 168 148 243q10 37 10 95q0 270 -133 270q-141 0 -141 -324v-1042h-387z" />
<glyph unicode="&#xe0;" horiz-adv-x="1146" d="M59 338q0 195 187 291q143 76 430 102v43q0 113 -170 113q-147 0 -299 -68l-80 219q207 86 455 86q457 0 456 -426v-635q-162 -84 -465 -83q-514 0 -514 358zM268 1503q27 59 156 60q117 0 197 -47l137 -302h-211zM422 354q0 -162 170 -161q55 0 84 14v350 q-127 -10 -182 -49q-72 -47 -72 -154z" />
<glyph unicode="&#xe1;" horiz-adv-x="1146" d="M59 338q0 195 187 291q143 76 430 102v43q0 113 -170 113q-147 0 -299 -68l-80 219q207 86 455 86q457 0 456 -426v-635q-162 -84 -465 -83q-514 0 -514 358zM422 354q0 -162 170 -161q55 0 84 14v350q-127 -10 -182 -49q-72 -47 -72 -154zM465 1214l137 302 q80 47 197 47q128 -1 155 -60l-278 -289h-211z" />
<glyph unicode="&#xe2;" horiz-adv-x="1146" d="M59 338q0 195 187 291q143 76 430 102v43q0 113 -170 113q-147 0 -299 -68l-80 219q207 86 455 86q457 0 456 -426v-635q-162 -84 -465 -83q-514 0 -514 358zM266 1282l221 223q41 41 103 41q59 0 100 -41l221 -223l-102 -94l-219 151l-219 -151zM422 354 q0 -162 170 -161q55 0 84 14v350q-127 -10 -182 -49q-72 -47 -72 -154z" />
<glyph unicode="&#xe3;" horiz-adv-x="1146" d="M59 338q0 195 187 291q143 76 430 102v43q0 113 -170 113q-147 0 -299 -68l-80 219q207 86 455 86q457 0 456 -426v-635q-162 -84 -465 -83q-514 0 -514 358zM236 1366q53 113 172 123q66 6 160 -40t143 -42q100 8 139 100l74 -172q-41 -102 -172 -114q-66 -6 -163 41 t-147 43q-94 -8 -135 -109zM422 354q0 -162 170 -161q55 0 84 14v350q-127 -10 -182 -49q-72 -47 -72 -154z" />
<glyph unicode="&#xe4;" horiz-adv-x="1146" d="M59 338q0 195 187 291q143 76 430 102v43q0 113 -170 113q-147 0 -299 -68l-80 219q207 86 455 86q457 0 456 -426v-635q-162 -84 -465 -83q-514 0 -514 358zM215 1360q0 59 47 100t115 41t117 -41t49 -100q0 -61 -49.5 -102t-116.5 -41q-68 0 -115 40.5t-47 102.5z M422 354q0 -162 170 -161q55 0 84 14v350q-127 -10 -182 -49q-72 -47 -72 -154zM645 1360q0 59 47 100t115 41t117 -41t49 -100q0 -61 -49.5 -102t-116.5 -41q-68 0 -115 40.5t-47 102.5z" />
<glyph unicode="&#xe5;" horiz-adv-x="1146" d="M59 338q0 195 187 291q143 76 430 102v43q0 113 -170 113q-147 0 -299 -68l-80 219q207 86 455 86q457 0 456 -426v-635q-162 -84 -465 -83q-514 0 -514 358zM401 1386q0 78 56.5 133.5t134.5 55.5t133 -55.5t55 -133.5t-55 -133t-133 -55t-134.5 55.5t-56.5 132.5z M422 354q0 -162 170 -161q55 0 84 14v350q-127 -10 -182 -49q-72 -47 -72 -154zM512 1386q0 -33 23.5 -55t56.5 -22t55.5 22t22.5 55t-22.5 56.5t-55.5 23.5t-56.5 -22.5t-23.5 -57.5z" />
<glyph unicode="&#xe6;" horiz-adv-x="1724" d="M59 338q0 190 179 287q143 78 424 106v43q0 113 -164 113q-133 0 -295 -66l-80 217q197 86 446 86q201 0 287 -129q117 129 309 129q252 0 379 -166q121 -161 107 -450l-635 -88q33 -180 225 -180q170 0 285 55l88 -232q-172 -84 -432 -83q-199 0 -324 143 q-94 -143 -342 -143q-215 0 -336 90t-121 268zM410 350q0 -156 129 -155q120 -1 120 120v240q-121 -12 -178 -49q-72 -49 -71 -156zM989 608l305 45q-2 248 -151 248q-160 0 -154 -293z" />
<glyph unicode="&#xe7;" horiz-adv-x="870" d="M72 557q0 270 141 426q129 141 326 141q190 0 282 -82l-76 -213q-45 39 -114 39q-166 0 -166 -309q0 -307 166 -307q68 0 114 41l80 -232q-90 -82 -282 -81q-209 0 -336 147q-135 156 -135 430zM150 -428l61 113q51 -4 98 -4q199 0 199 63q0 47 -127 47q-45 0 -111 -4 l60 102q74 6 135 7q283 -1 283 -148q0 -186 -412 -186q-86 0 -186 10z" />
<glyph unicode="&#xe8;" horiz-adv-x="1159" d="M72 555q0 258 133 410q139 160 391 159q254 0 383 -166q122 -161 106 -448l-643 -90q37 -178 230 -178q176 0 295 59l86 -238q-172 -84 -430 -83q-262 0 -410 163q-141 154 -141 412zM252 1503q27 59 156 60q117 0 196 -47l137 -302h-211zM414 604l313 47q0 250 -147 250 q-184 0 -166 -297z" />
<glyph unicode="&#xe9;" horiz-adv-x="1159" d="M72 555q0 258 133 410q139 160 391 159q254 0 383 -166q122 -161 106 -448l-643 -90q37 -178 230 -178q176 0 295 59l86 -238q-172 -84 -430 -83q-262 0 -410 163q-141 154 -141 412zM414 604l313 47q0 250 -147 250q-184 0 -166 -297zM465 1214l137 302q80 47 197 47 q128 -1 155 -60l-278 -289h-211z" />
<glyph unicode="&#xea;" horiz-adv-x="1159" d="M72 555q0 258 133 410q139 160 391 159q254 0 383 -166q122 -161 106 -448l-643 -90q37 -178 230 -178q176 0 295 59l86 -238q-172 -84 -430 -83q-262 0 -410 163q-141 154 -141 412zM268 1282l221 223q41 41 101 41q61 0 102 -41l221 -223l-104 -94l-219 151l-217 -151z M414 604l313 47q0 250 -147 250q-184 0 -166 -297z" />
<glyph unicode="&#xeb;" horiz-adv-x="1159" d="M72 555q0 258 133 410q139 160 391 159q254 0 383 -166q122 -161 106 -448l-643 -90q37 -178 230 -178q176 0 295 59l86 -238q-172 -84 -430 -83q-262 0 -410 163q-141 154 -141 412zM215 1360q0 59 48 100t116 41t116 -41t48 -100q0 -61 -48.5 -102t-115.5 -41 q-68 0 -116 40.5t-48 102.5zM414 604l313 47q0 250 -147 250q-184 0 -166 -297zM643 1360q0 59 48 100t116 41t117 -41t49 -100q0 -61 -49.5 -102t-116.5 -41q-68 0 -116 40.5t-48 102.5z" />
<glyph unicode="&#xec;" horiz-adv-x="612" d="M-16 1503q27 59 155 60q117 0 197 -47l137 -302h-211zM111 0v1104h389v-1104h-389z" />
<glyph unicode="&#xed;" horiz-adv-x="612" d="M111 0v1104h389v-1104h-389zM139 1214l137 302q80 47 197 47q129 -1 156 -60l-279 -289h-211z" />
<glyph unicode="&#xee;" horiz-adv-x="612" d="M-16 1282l221 223q41 41 100 41q61 0 103 -41l221 -223l-105 -94l-217 151l-219 -151zM113 0v1104h389v-1104h-389z" />
<glyph unicode="&#xef;" horiz-adv-x="612" d="M-72 1360q0 59 47.5 100t114.5 41q68 0 117 -41t49 -100q0 -61 -49 -102t-117 -41t-115 40.5t-47 102.5zM111 0v1104h389v-1104h-389zM356 1360q0 59 48.5 100t115.5 41q68 0 116 -41t48 -100q0 -61 -48 -102t-116 -41t-116 40.5t-48 102.5z" />
<glyph unicode="&#xf0;" horiz-adv-x="1193" d="M72 551q0 246 131 407.5t342 161.5q45 0 76 -8q-37 96 -89 172l-186 -61q-41 78 -100 143l176 55q-33 43 -100 107l331 104q66 -57 99 -100l168 55q53 -59 106 -139l-168 -57q254 -398 254 -826q0 -266 -137 -427t-379 -161t-385 162q-139 156 -139 412zM457 563 q0 -164 30 -237q33 -80 109 -80q131 -1 131 323q0 186 -47 316q-27 8 -66 8q-82 0 -116 -68q-41 -76 -41 -262z" />
<glyph unicode="&#xf1;" horiz-adv-x="1224" d="M109 0v1040q188 84 493 84q514 0 514 -358v-766h-389v764q0 121 -131 121q-55 0 -98 -15v-870h-389zM264 1366q53 113 174 123q66 6 159 -40t142 -42q102 10 142 100l73 -172q-41 -102 -174 -114q-66 -6 -162 41t-145 43q-92 -8 -137 -109z" />
<glyph unicode="&#xf2;" horiz-adv-x="1173" d="M72 553q0 254 137 412.5t377 158.5q244 0 383 -161q133 -156 133 -410q0 -256 -135 -412q-139 -162 -381 -161q-242 0 -381 161q-133 156 -133 412zM246 1503q27 59 155 60q117 0 197 -47l137 -302h-211zM457 559q0 -317 129 -317t129 317q0 324 -129 324t-129 -324z" />
<glyph unicode="&#xf3;" horiz-adv-x="1173" d="M72 553q0 254 137 412.5t377 158.5q244 0 383 -161q133 -156 133 -410q0 -256 -135 -412q-139 -162 -381 -161q-242 0 -381 161q-133 156 -133 412zM453 1214l137 302q80 47 196 47q129 -1 156 -60l-278 -289h-211zM457 559q0 -317 129 -317t129 317q0 324 -129 324 t-129 -324z" />
<glyph unicode="&#xf4;" horiz-adv-x="1173" d="M72 553q0 254 137 412.5t377 158.5q244 0 383 -161q133 -156 133 -410q0 -256 -135 -412q-139 -162 -381 -161q-242 0 -381 161q-133 156 -133 412zM264 1282l221 223q41 41 101 41q61 0 102 -41l221 -223l-104 -94l-219 151l-217 -151zM457 559q0 -317 129 -317t129 317 q0 324 -129 324t-129 -324z" />
<glyph unicode="&#xf5;" horiz-adv-x="1173" d="M72 553q0 254 137 412.5t377 158.5q244 0 383 -161q133 -156 133 -410q0 -256 -135 -412q-139 -162 -381 -161q-242 0 -381 161q-133 156 -133 412zM242 1366q53 113 174 123q66 6 159 -40t142 -42q100 8 139 100l74 -172q-37 -102 -172 -114q-66 -6 -162 41t-145 43 q-96 -8 -138 -109zM457 559q0 -317 129 -317t129 317q0 324 -129 324t-129 -324z" />
<glyph unicode="&#xf6;" horiz-adv-x="1173" d="M72 553q0 254 137 412.5t377 158.5q244 0 383 -161q133 -156 133 -410q0 -256 -135 -412q-139 -162 -381 -161q-242 0 -381 161q-133 156 -133 412zM207 1360q0 59 48 100t116 41t117 -41t49 -100q0 -61 -49.5 -102t-116.5 -41q-68 0 -116 40.5t-48 102.5zM457 559 q0 -317 129 -317t129 317q0 324 -129 324t-129 -324zM637 1360q0 59 48 100t116 41t116 -41t48 -100q0 -61 -48.5 -102t-115.5 -41q-68 0 -116 40.5t-48 102.5z" />
<glyph unicode="&#xf7;" d="M170 588v176h852v-176h-852zM446 340q0 63 44.5 106t105.5 43t105 -43t44 -106q0 -61 -44 -105.5t-105 -44.5t-105.5 44.5t-44.5 105.5zM446 1010q0 63 44.5 106t105.5 43t105 -43t44 -106q0 -61 -44 -105.5t-105 -44.5t-105.5 44t-44.5 106z" />
<glyph unicode="&#xf8;" horiz-adv-x="1185" d="M72 553q0 252 139 411.5t381 159.5q135 0 242 -55l94 164l80 -45l-97 -166q203 -156 203 -469q0 -254 -139 -413.5t-381 -159.5q-137 0 -250 59l-98 -170l-80 47l100 172q-195 160 -194 465zM426 561q0 -92 18 -164l258 447q-39 66 -108 65q-168 0 -168 -348zM483 281 q39 -68 111 -68q166 0 166 346q0 94 -19 168z" />
<glyph unicode="&#xf9;" horiz-adv-x="1212" d="M109 375v729h389v-758q0 -106 116 -106q61 0 101 18v846h389v-1038q-178 -86 -496 -86q-254 0 -372 90q-127 94 -127 305zM279 1503q27 59 155 60q117 0 197 -47l137 -302h-211z" />
<glyph unicode="&#xfa;" horiz-adv-x="1212" d="M109 375v729h389v-758q0 -106 116 -106q61 0 101 18v846h389v-1038q-178 -86 -496 -86q-254 0 -372 90q-127 94 -127 305zM471 1214l139 302q80 47 197 47q129 -1 154 -60l-279 -289h-211z" />
<glyph unicode="&#xfb;" horiz-adv-x="1212" d="M109 375v729h389v-758q0 -106 116 -106q61 0 101 18v846h389v-1038q-178 -86 -496 -86q-254 0 -372 90q-127 94 -127 305zM285 1282l219 223q41 41 102 41t103 -41l221 -223l-105 -94l-219 151l-219 -151z" />
<glyph unicode="&#xfc;" horiz-adv-x="1212" d="M109 375v729h389v-758q0 -106 116 -106q61 0 101 18v846h389v-1038q-178 -86 -496 -86q-254 0 -372 90q-127 94 -127 305zM227 1360q0 59 47.5 100t114.5 41q68 0 117 -41t49 -100q0 -61 -49 -102t-117 -41t-115 40.5t-47 102.5zM657 1360q0 59 47.5 100t114.5 41 q68 0 117 -41t49 -100q0 -61 -49 -102t-117 -41t-115 40.5t-47 102.5z" />
<glyph unicode="&#xfd;" horiz-adv-x="1103" d="M12 1104h412l143 -692h4l156 692h365l-492 -1544h-412l187 440zM428 1214l139 302q80 47 197 47q129 -1 154 -60l-279 -289h-211z" />
<glyph unicode="&#xfe;" horiz-adv-x="1214" d="M109 -440v2048h389v-523q82 35 182 35q199 0 324 -131q139 -145 139 -401q0 -276 -148 -441q-139 -158 -356 -157q-84 0 -141 14v-444h-389zM498 225q33 -8 59 -8q201 0 201 340q0 182 -44 259t-145 77q-43 0 -71 -14v-654z" />
<glyph unicode="&#xff;" horiz-adv-x="1103" d="M12 1104h412l143 -692h4l156 692h365l-492 -1544h-412l187 440zM195 1360q0 59 48 100t115 41q68 0 117 -41t49 -100q0 -61 -49 -102t-117 -41t-115.5 40.5t-47.5 102.5zM625 1360q0 59 48 100t115 41q68 0 116 -41t48 -100q0 -61 -48 -102t-116 -41t-115.5 40.5 t-47.5 102.5z" />
<glyph unicode="&#x152;" horiz-adv-x="1587" d="M80 705q0 348 150.5 536.5t447.5 188.5q90 0 176 -21h653v-270h-348v-293h299v-264h-299v-312h348v-270h-657q-70 -20 -170 -20q-297 0 -451 192q-150 186 -149 533zM489 713q0 -463 211 -463q43 0 84 10v903q-37 12 -84 13q-211 0 -211 -463z" />
<glyph unicode="&#x153;" horiz-adv-x="1765" d="M72 553q0 254 135 412.5t371 158.5q197 0 305 -147q49 66 137 106.5t182 40.5q256 0 383 -168q119 -161 107 -454l-635 -84q33 -178 221 -178q166 0 289 57l86 -234q-162 -84 -430 -83q-229 0 -336 157q-115 -158 -309 -157q-238 0 -375 161q-131 156 -131 412zM444 561 q0 -319 134 -319q131 0 131 317q0 137 -15 199q-29 125 -116 125q-133 0 -134 -322zM1028 666q0 -25 2 -54l303 39q0 252 -151 252q-68 0 -111 -60.5t-43 -176.5z" />
<glyph unicode="&#x178;" horiz-adv-x="1118" d="M-12 1409h428l164 -479h4l174 479h375l-375 -834v-575h-404v575zM201 1651q0 61 47 102t114 41q68 0 117 -41t49 -102q0 -59 -49 -100.5t-117 -41.5t-114.5 41t-46.5 101zM631 1651q0 61 47 102t115 41t116.5 -41t48.5 -102q0 -59 -49 -100.5t-116 -41.5q-68 0 -115 41 t-47 101z" />
<glyph unicode="&#x2c6;" horiz-adv-x="561" d="M-43 1282l221 223q41 41 103 41q61 0 102 -41l221 -223l-104 -94l-219 151l-220 -151z" />
<glyph unicode="&#x2dc;" horiz-adv-x="561" d="M-63 1366q53 113 174 123q66 6 158.5 -40t142.5 -42q98 8 141 100l72 -172q-37 -102 -172 -114q-66 -6 -162 41t-146 43q-96 -8 -137 -109z" />
<glyph unicode="&#x2000;" horiz-adv-x="938" />
<glyph unicode="&#x2001;" horiz-adv-x="1876" />
<glyph unicode="&#x2002;" horiz-adv-x="938" />
<glyph unicode="&#x2003;" horiz-adv-x="1876" />
<glyph unicode="&#x2004;" horiz-adv-x="625" />
<glyph unicode="&#x2005;" horiz-adv-x="469" />
<glyph unicode="&#x2006;" horiz-adv-x="312" />
<glyph unicode="&#x2007;" horiz-adv-x="312" />
<glyph unicode="&#x2008;" horiz-adv-x="234" />
<glyph unicode="&#x2009;" horiz-adv-x="375" />
<glyph unicode="&#x200a;" horiz-adv-x="104" />
<glyph unicode="&#x2010;" horiz-adv-x="741" d="M86 547v280h569v-280h-569z" />
<glyph unicode="&#x2011;" horiz-adv-x="741" d="M86 547v280h569v-280h-569z" />
<glyph unicode="&#x2012;" horiz-adv-x="741" d="M86 547v280h569v-280h-569z" />
<glyph unicode="&#x2013;" horiz-adv-x="880" d="M0 575v222h881v-222h-881z" />
<glyph unicode="&#x2014;" horiz-adv-x="1761" d="M0 592v188h1761v-188h-1761z" />
<glyph unicode="&#x2018;" horiz-adv-x="679" d="M82 975l348 633h199l-193 -633q-72 -115 -209 -115q-125 0 -145 115z" />
<glyph unicode="&#x2019;" horiz-adv-x="679" d="M51 874l193 633q76 117 209 117q125 0 145 -117l-348 -633h-199z" />
<glyph unicode="&#x201a;" horiz-adv-x="679" d="M51 -346l193 633q76 115 211 114q123 1 143 -114l-348 -633h-199z" />
<glyph unicode="&#x201c;" horiz-adv-x="1165" d="M82 975l348 633h199l-193 -633q-72 -115 -209 -115q-125 0 -145 115zM567 975l348 633h199l-192 -633q-72 -115 -209 -115q-125 0 -146 115z" />
<glyph unicode="&#x201d;" horiz-adv-x="1165" d="M51 874l193 633q76 117 209 117q125 0 145 -117l-348 -633h-199zM537 874l192 633q76 117 211 117q127 0 143 -117l-348 -633h-198z" />
<glyph unicode="&#x201e;" horiz-adv-x="1165" d="M51 -346l193 633q76 115 209 114q125 1 145 -114l-348 -633h-199zM537 -346l192 633q76 115 211 114q127 1 143 -114l-348 -633h-198z" />
<glyph unicode="&#x2022;" horiz-adv-x="872" d="M96 750q0 139 99.5 239.5t240.5 100.5t240.5 -100.5t99.5 -239.5q0 -141 -99 -240.5t-241 -99.5q-141 0 -240.5 99t-99.5 241z" />
<glyph unicode="&#x2026;" horiz-adv-x="1994" d="M119 195q0 88 62.5 150.5t150.5 62.5t151.5 -62.5t63.5 -150.5t-62.5 -151.5t-152.5 -63.5q-88 0 -150.5 63t-62.5 152zM784 195q0 88 62.5 150.5t150.5 62.5t151.5 -62.5t63.5 -150.5t-62.5 -151.5t-152.5 -63.5q-88 0 -150.5 63t-62.5 152zM1450 195q0 88 62.5 150.5 t150.5 62.5t150.5 -62.5t62.5 -150.5q0 -90 -62.5 -152.5t-150.5 -62.5t-150.5 62t-62.5 153z" />
<glyph unicode="&#x202f;" horiz-adv-x="375" />
<glyph unicode="&#x2039;" horiz-adv-x="673" d="M61 684l301 504l213 -119l-229 -385l229 -383l-213 -121z" />
<glyph unicode="&#x203a;" horiz-adv-x="673" d="M98 301l230 383l-230 385l213 119l301 -504l-301 -504z" />
<glyph unicode="&#x205f;" horiz-adv-x="469" />
<glyph unicode="&#x2122;" horiz-adv-x="1599" d="M66 1276v133h546v-133h-182v-563h-178v563h-186zM608 713l107 696h215l133 -483l123 483h217l108 -696h-174l-59 491l-141 -491h-156l-145 487l-56 -487h-172z" />
<glyph unicode="&#x25fc;" horiz-adv-x="1105" d="M0 0v1106h1106v-1106h-1106z" />
</font>
</defs>
</svg>
