<svg width="14" height="14" viewBox="0 0 14 14" fill="none" xmlns="http://www.w3.org/2000/svg">
<path d="M7.0007 3.76561C5.18356 3.76561 3.71785 5.20843 3.71785 6.99718C3.71785 8.78593 5.18356 10.2287 7.0007 10.2287C8.81785 10.2287 10.2836 8.78593 10.2836 6.99718C10.2836 5.20843 8.81785 3.76561 7.0007 3.76561ZM7.0007 9.09811C5.82642 9.09811 4.86642 8.15593 4.86642 6.99718C4.86642 5.83843 5.82356 4.89624 7.0007 4.89624C8.17785 4.89624 9.13499 5.83843 9.13499 6.99718C9.13499 8.15593 8.17499 9.09811 7.0007 9.09811ZM11.1836 3.63343C11.1836 4.05249 10.8407 4.38718 10.4178 4.38718C9.99213 4.38718 9.65213 4.04968 9.65213 3.63343C9.65213 3.21718 9.99499 2.87968 10.4178 2.87968C10.8407 2.87968 11.1836 3.21718 11.1836 3.63343ZM13.3578 4.39843C13.3093 3.38874 13.075 2.49437 12.3236 1.75749C11.575 1.02062 10.6664 0.78999 9.64071 0.739365C8.58356 0.680303 5.41499 0.680303 4.35785 0.739365C3.33499 0.787178 2.42642 1.0178 1.67499 1.75468C0.92356 2.49155 0.692132 3.38593 0.640703 4.39562C0.580703 5.43624 0.580703 8.5553 0.640703 9.59593C0.689275 10.6056 0.92356 11.5 1.67499 12.2369C2.42642 12.9737 3.33213 13.2044 4.35785 13.255C5.41499 13.3141 8.58356 13.3141 9.64071 13.255C10.6664 13.2072 11.575 12.9766 12.3236 12.2369C13.0721 11.5 13.3064 10.6056 13.3578 9.59593C13.4178 8.5553 13.4178 5.43905 13.3578 4.39843ZM11.9921 10.7125C11.7693 11.2637 11.3378 11.6884 10.775 11.9106C9.93213 12.2397 7.93213 12.1637 7.0007 12.1637C6.06928 12.1637 4.06642 12.2369 3.22642 11.9106C2.66642 11.6912 2.23499 11.2666 2.00927 10.7125C1.67499 9.8828 1.75213 7.91405 1.75213 6.99718C1.75213 6.0803 1.67785 4.10874 2.00927 3.28187C2.23213 2.73062 2.66356 2.30593 3.22642 2.08374C4.06928 1.75468 6.06928 1.83062 7.0007 1.83062C7.93213 1.83062 9.93499 1.75749 10.775 2.08374C11.335 2.30312 11.7664 2.7278 11.9921 3.28187C12.3264 4.11155 12.2493 6.0803 12.2493 6.99718C12.2493 7.91405 12.3264 9.88561 11.9921 10.7125Z" fill="white"/>
</svg>
