<svg width="16" height="12" viewBox="0 0 16 12" fill="none" xmlns="http://www.w3.org/2000/svg">
<path d="M13.7206 3.2146C13.7298 3.33812 13.7298 3.46167 13.7298 3.58519C13.7298 7.35282 10.7602 11.694 5.33278 11.694C3.66068 11.694 2.10739 11.2263 0.800781 10.4146C1.03835 10.4411 1.26676 10.4499 1.51347 10.4499C2.89315 10.4499 4.16322 9.99992 5.17744 9.23227C3.87997 9.20578 2.79266 8.3852 2.41803 7.25578C2.60079 7.28224 2.78352 7.29989 2.97541 7.29989C3.24038 7.29989 3.50538 7.26458 3.75206 7.20285C2.39978 6.93812 1.38553 5.79107 1.38553 4.40578V4.3705C1.77841 4.58226 2.2353 4.71461 2.71953 4.73224C1.9246 4.22047 1.40381 3.34695 1.40381 2.35871C1.40381 1.8293 1.54998 1.34401 1.80583 0.920477C3.25863 2.64989 5.44241 3.77928 7.89112 3.90283C7.84545 3.69106 7.81802 3.4705 7.81802 3.24991C7.81802 1.6793 9.13377 0.399902 10.7693 0.399902C11.619 0.399902 12.3866 0.744019 12.9257 1.2999C13.5926 1.17638 14.2322 0.938131 14.7988 0.611669C14.5794 1.27345 14.1135 1.82933 13.5013 2.18225C14.0952 2.12051 14.6708 1.96165 15.2008 1.74109C14.7988 2.30577 14.2963 2.80869 13.7206 3.2146Z" fill="white"/>
</svg>
