<svg width="19" height="13" viewBox="0 0 19 13" fill="none" xmlns="http://www.w3.org/2000/svg">
<path d="M17.6974 2.5338C17.4923 1.77265 16.8878 1.1732 16.1204 0.969762C14.7293 0.600098 9.15129 0.600098 9.15129 0.600098C9.15129 0.600098 3.5733 0.600098 2.1822 0.969762C1.41475 1.17323 0.810308 1.77265 0.605159 2.5338C0.232422 3.91343 0.232422 6.7919 0.232422 6.7919C0.232422 6.7919 0.232422 9.67036 0.605159 11.05C0.810308 11.8111 1.41475 12.3856 2.1822 12.5891C3.5733 12.9587 9.15129 12.9587 9.15129 12.9587C9.15129 12.9587 14.7293 12.9587 16.1204 12.5891C16.8878 12.3856 17.4923 11.8111 17.6974 11.05C18.0702 9.67036 18.0702 6.7919 18.0702 6.7919C18.0702 6.7919 18.0702 3.91343 17.6974 2.5338ZM7.32697 9.40533V4.17847L11.9891 6.79196L7.32697 9.40533Z" fill="white"/>
</svg>
