<svg width="15" height="13" viewBox="0 0 15 13" fill="none" xmlns="http://www.w3.org/2000/svg">
<path d="M14.4727 6.42188L13 5.20312V2.76562C13 2.66406 12.8984 2.5625 12.7969 2.5625H11.9844C11.8574 2.58789 11.7812 2.66406 11.7812 2.76562V4.21289L8.20117 1.26758C7.99805 1.08984 7.5918 0.962891 7.3125 0.962891C7.00781 0.962891 6.60156 1.08984 6.39844 1.26758L0.126953 6.42188C0.0507812 6.49805 0 6.625 0 6.72656C0 6.80273 0.0253906 6.92969 0.0761719 6.98047L0.355469 7.31055C0.40625 7.38672 0.558594 7.4375 0.660156 7.4375C0.736328 7.4375 0.863281 7.41211 0.914062 7.36133L1.625 6.77734V11.5C1.625 11.957 1.98047 12.3125 2.4375 12.3125H5.6875C6.11914 12.3125 6.47461 11.957 6.5 11.5V8.85938H8.125V11.5C8.125 11.957 8.48047 12.3125 8.9375 12.3125H12.1875C12.6191 12.3125 12.9746 11.957 13 11.5254V6.77734L13.6855 7.36133C13.7363 7.41211 13.8633 7.46289 13.9395 7.46289C14.041 7.46289 14.1934 7.38672 14.2695 7.31055L14.5234 6.98047C14.5742 6.92969 14.625 6.80273 14.625 6.72656C14.625 6.625 14.5488 6.49805 14.4727 6.42188ZM11.7559 11.0938H9.34375V8.45312C9.31836 8.02148 8.96289 7.66602 8.53125 7.64062H6.09375C5.63672 7.66602 5.28125 8.02148 5.28125 8.45312V11.0938H2.84375V5.78711L7.3125 2.10547L11.7812 5.78711L11.7559 11.0938Z" fill="#637488"/>
</svg>
