<svg width="24" height="25" viewBox="0 0 24 25" fill="none" xmlns="http://www.w3.org/2000/svg">
<path fill-rule="evenodd" clip-rule="evenodd" d="M20.8 12.5C20.8 17.3601 16.8601 21.3 12 21.3C7.13989 21.3 3.2 17.3601 3.2 12.5C3.2 7.63989 7.13989 3.7 12 3.7C16.8601 3.7 20.8 7.63989 20.8 12.5ZM22 12.5C22 18.0228 17.5228 22.5 12 22.5C6.47715 22.5 2 18.0228 2 12.5C2 6.97715 6.47715 2.5 12 2.5C17.5228 2.5 22 6.97715 22 12.5ZM17.4222 9.42629C17.6577 9.1931 17.6595 8.8132 17.4263 8.57777C17.1931 8.34234 16.8132 8.34052 16.5778 8.57371L10.4117 14.6811L7.39452 12.0479C7.14486 11.8301 6.76583 11.8558 6.54795 12.1055C6.33006 12.3551 6.35582 12.7342 6.60548 12.9521L10.043 15.9521C10.2799 16.1588 10.6363 16.1476 10.8597 15.9263L17.4222 9.42629Z" fill="#C82828"/>
</svg>
